<svg width="64" height="64" viewBox="0 0 64 64" fill="none" xmlns="http://www.w3.org/2000/svg">
<path d="M10.2471 31.9629C10.2471 31.3125 10.4756 30.7588 10.9326 30.3018C11.4072 29.8271 11.9609 29.5898 12.5938 29.5898H29.6533V12.5566C29.6533 11.9238 29.8818 11.3789 30.3389 10.9219C30.7959 10.4473 31.3496 10.21 32 10.21C32.6504 10.21 33.2041 10.4473 33.6611 10.9219C34.1357 11.3789 34.373 11.9238 34.373 12.5566V29.5898H51.4062C52.0391 29.5898 52.584 29.8271 53.041 30.3018C53.5156 30.7588 53.7529 31.3125 53.7529 31.9629C53.7529 32.6133 53.5156 33.167 53.041 33.624C52.584 34.0811 52.0391 34.3096 51.4062 34.3096H34.373V51.3691C34.373 52.002 34.1357 52.5469 33.6611 53.0039C33.2041 53.4785 32.6504 53.7158 32 53.7158C31.3496 53.7158 30.7959 53.4785 30.3389 53.0039C29.8818 52.5469 29.6533 52.002 29.6533 51.3691V34.3096H12.5938C11.9609 34.3096 11.4072 34.0811 10.9326 33.624C10.4756 33.167 10.2471 32.6133 10.2471 31.9629Z" fill="black"/>
</svg>
