<svg width="64" height="64" viewBox="0 0 64 64" fill="none" xmlns="http://www.w3.org/2000/svg">
<path d="M56.4688 31.9629C56.4688 32.6309 56.2051 33.2197 55.6777 33.7295L38.1436 51.2109C37.6338 51.7031 37.0625 51.9492 36.4297 51.9492C35.7793 51.9492 35.2344 51.7295 34.7949 51.29C34.3555 50.8682 34.1357 50.332 34.1357 49.6816C34.1357 49.3652 34.1885 49.0664 34.2939 48.7852C34.3994 48.4863 34.5576 48.2314 34.7686 48.0205L40.6748 42.0088L51.1426 32.4902L51.6699 33.7822L43.1797 34.3096H9.8252C9.13965 34.3096 8.57715 34.0898 8.1377 33.6504C7.71582 33.2109 7.50488 32.6484 7.50488 31.9629C7.50488 31.2773 7.71582 30.7148 8.1377 30.2754C8.57715 29.8359 9.13965 29.6162 9.8252 29.6162H43.1797L51.6699 30.1436L51.1426 31.4619L40.6748 21.917L34.7686 15.9053C34.5576 15.6943 34.3994 15.4482 34.2939 15.167C34.1885 14.8682 34.1357 14.5605 34.1357 14.2441C34.1357 13.5937 34.3555 13.0576 34.7949 12.6357C35.2344 12.1963 35.7793 11.9766 36.4297 11.9766C36.7461 11.9766 37.0449 12.0381 37.3262 12.1611C37.625 12.2842 37.915 12.4863 38.1963 12.7676L55.6777 30.1963C56.2051 30.7061 56.4688 31.2949 56.4688 31.9629Z" fill="black"/>
</svg>
