<svg width="64" height="64" viewBox="0 0 64 64" fill="none" xmlns="http://www.w3.org/2000/svg">
<path d="M7.50488 31.9629C7.50488 31.2949 7.77734 30.7061 8.32227 30.1963L25.7773 12.7676C26.0586 12.4863 26.3398 12.2842 26.6211 12.1611C26.9199 12.0381 27.2275 11.9766 27.5439 11.9766C28.1943 11.9766 28.7393 12.1963 29.1787 12.6357C29.6357 13.0576 29.8643 13.5937 29.8643 14.2441C29.8643 14.5605 29.8027 14.8682 29.6797 15.167C29.5742 15.4482 29.416 15.6943 29.2051 15.9053L23.2988 21.917L12.8574 31.4619L12.3037 30.1436L20.7939 29.6162H54.1484C54.834 29.6162 55.3877 29.8359 55.8096 30.2754C56.249 30.7148 56.4688 31.2773 56.4688 31.9629C56.4688 32.6484 56.249 33.2109 55.8096 33.6504C55.3877 34.0898 54.834 34.3096 54.1484 34.3096H20.7939L12.3037 33.7822L12.8574 32.4902L23.2988 42.0088L29.2051 48.0205C29.416 48.2314 29.5742 48.4863 29.6797 48.7852C29.8027 49.0664 29.8643 49.3652 29.8643 49.6816C29.8643 50.332 29.6357 50.8682 29.1787 51.29C28.7393 51.7295 28.1943 51.9492 27.5439 51.9492C26.9111 51.9492 26.3398 51.7031 25.8301 51.2109L8.32227 33.7295C7.77734 33.2197 7.50488 32.6309 7.50488 31.9629Z" fill="black"/>
</svg>
