<svg width="64" height="64" viewBox="0 0 64 64" fill="none" xmlns="http://www.w3.org/2000/svg">
<path d="M9.79883 39.6885L30.207 18.8057C30.6992 18.2783 31.2969 18.0146 32 18.0146C32.334 18.0146 32.6504 18.085 32.9492 18.2256C33.2656 18.3662 33.5381 18.5596 33.7666 18.8057L54.1748 39.6885C54.6494 40.1455 54.8867 40.7168 54.8867 41.4023C54.8867 41.8594 54.7812 42.2725 54.5703 42.6416C54.3594 42.9932 54.0693 43.2744 53.7002 43.4854C53.3486 43.6963 52.9443 43.8018 52.4873 43.8018C51.7842 43.8018 51.2129 43.5732 50.7734 43.1162L30.5762 22.4971H33.3975L13.2002 43.1162C12.7783 43.5732 12.207 43.8018 11.4863 43.8018C11.0293 43.8018 10.6162 43.6963 10.2471 43.4854C9.89551 43.2744 9.61426 42.9932 9.40332 42.6416C9.19238 42.2725 9.08691 41.8594 9.08691 41.4023C9.08691 41.0684 9.14844 40.752 9.27148 40.4531C9.39453 40.1543 9.57031 39.8994 9.79883 39.6885Z" fill="black"/>
</svg>
