<svg width="64" height="64" viewBox="0 0 64 64" fill="none" xmlns="http://www.w3.org/2000/svg">
<path d="M32 46.0166C31.332 46.0166 30.7344 45.7617 30.207 45.252L9.79883 24.3691C9.57031 24.1406 9.39453 23.8857 9.27148 23.6045C9.14844 23.3057 9.08691 22.9893 9.08691 22.6553C9.08691 22.1982 9.19238 21.7852 9.40332 21.416C9.61426 21.0469 9.89551 20.7568 10.2471 20.5459C10.6162 20.335 11.0293 20.2295 11.4863 20.2295C12.1543 20.2295 12.7256 20.458 13.2002 20.915L33.3975 41.5605H30.5762L50.7734 20.915C51.2656 20.458 51.8369 20.2295 52.4873 20.2295C52.9443 20.2295 53.3486 20.335 53.7002 20.5459C54.0693 20.7568 54.3594 21.0469 54.5703 21.416C54.7812 21.7852 54.8867 22.1982 54.8867 22.6553C54.8867 23.3057 54.6494 23.8682 54.1748 24.3428L33.7666 45.252C33.5381 45.498 33.2656 45.6914 32.9492 45.832C32.6504 45.9551 32.334 46.0166 32 46.0166Z" fill="black"/>
</svg>
