<svg width="64" height="64" viewBox="0 0 64 64" fill="none" xmlns="http://www.w3.org/2000/svg">
<path d="M49.8506 33.5713C50.2373 33.2021 50.7031 33 51.248 32.9648C51.8105 32.9121 52.2764 33.0967 52.6455 33.5186C53.0498 33.8877 53.252 34.3623 53.252 34.9424C53.252 35.5225 53.0586 36.0059 52.6719 36.3926L33.1602 55.9043C31.5254 57.5215 29.7588 58.7168 27.8604 59.4902C25.9619 60.2637 24.0283 60.6328 22.0596 60.5977C20.1084 60.5801 18.2188 60.1758 16.3906 59.3848C14.5625 58.6113 12.9189 57.4951 11.46 56.0361C9.9834 54.5771 8.8584 52.9336 8.08496 51.1055C7.31152 49.2773 6.90723 47.3877 6.87207 45.4365C6.83691 43.4678 7.20605 41.5342 7.97949 39.6357C8.75293 37.7373 9.95703 35.9707 11.5918 34.3359L38.1699 7.73145C39.8223 6.0791 41.5977 4.99805 43.4961 4.48828C45.3945 3.97852 47.249 3.97852 49.0596 4.48828C50.8877 4.98047 52.4961 5.9209 53.8848 7.30957C55.3262 8.75098 56.293 10.377 56.7852 12.1875C57.2773 13.998 57.2598 15.8438 56.7324 17.7246C56.2051 19.6055 55.1152 21.3721 53.4629 23.0244L27.5176 48.9697C26.6211 49.8662 25.6191 50.4727 24.5117 50.7891C23.4219 51.1055 22.332 51.1318 21.2422 50.8682C20.1523 50.5869 19.1768 50.0156 18.3154 49.1543C17.5244 48.3633 16.9883 47.4229 16.707 46.333C16.4434 45.2432 16.4521 44.1357 16.7334 43.0107C17.0322 41.8857 17.6299 40.875 18.5264 39.9785L36.6406 21.8643C37.0273 21.46 37.4756 21.249 37.9854 21.2314C38.5127 21.2139 38.9697 21.3896 39.3564 21.7588C39.7432 22.1455 39.9189 22.6025 39.8838 23.1299C39.8662 23.6396 39.6641 24.0967 39.2773 24.501L21.2158 42.5098C20.5654 43.1777 20.2842 43.8633 20.3721 44.5664C20.46 45.2695 20.7324 45.8496 21.1895 46.3066C21.6465 46.7461 22.2266 47.0186 22.9297 47.124C23.6328 47.2119 24.3096 46.9219 24.96 46.2539L50.7998 20.4141C51.8018 19.4121 52.5049 18.2871 52.9092 17.0391C53.3311 15.791 53.4189 14.5605 53.1729 13.3477C52.9268 12.1172 52.3203 11.0098 51.3535 10.0254C50.3867 9.07617 49.2881 8.47852 48.0576 8.23242C46.8271 7.98633 45.5879 8.06543 44.3398 8.46973C43.0918 8.87402 41.9668 9.58594 40.9648 10.6055L14.5186 37.0254C12.8486 38.7129 11.7588 40.5322 11.249 42.4834C10.7568 44.417 10.7832 46.3154 11.3281 48.1787C11.8906 50.042 12.8926 51.6943 14.334 53.1357C15.7754 54.5947 17.4277 55.5967 19.291 56.1416C21.1719 56.7041 23.0791 56.7305 25.0127 56.2207C26.9639 55.7285 28.7832 54.6387 30.4707 52.9512L49.8506 33.5713Z" fill="black"/>
</svg>
