<svg width="64" height="64" viewBox="0 0 64 64" fill="none" xmlns="http://www.w3.org/2000/svg">
<path d="M13.9912 56.2734C11.2314 56.2734 9.15723 55.5879 7.76855 54.2168C6.39746 52.8633 5.71191 50.8242 5.71191 48.0996V15.9053C5.71191 13.1807 6.39746 11.1416 7.76855 9.78809C9.15723 8.41699 11.2314 7.73145 13.9912 7.73145H50.0088C52.7686 7.73145 54.834 8.41699 56.2051 9.78809C57.5762 11.1416 58.2617 13.1807 58.2617 15.9053V48.0996C58.2617 50.8242 57.5762 52.8633 56.2051 54.2168C54.834 55.5879 52.7686 56.2734 50.0088 56.2734H13.9912ZM13.5957 52.0283H50.3516C51.5293 52.0283 52.4346 51.7119 53.0674 51.0791C53.7002 50.4639 54.0166 49.5498 54.0166 48.3369V23.4727C54.0166 22.2598 53.7002 21.3457 53.0674 20.7305C52.4346 20.0977 51.5293 19.7812 50.3516 19.7812H13.5957C12.4355 19.7812 11.5391 20.0977 10.9062 20.7305C10.2734 21.3457 9.95703 22.2598 9.95703 23.4727V48.3369C9.95703 49.5498 10.2734 50.4639 10.9062 51.0791C11.5391 51.7119 12.4355 52.0283 13.5957 52.0283ZM26.8584 29.2734C26.4014 29.2734 26.0762 29.1855 25.8828 29.0098C25.707 28.834 25.6191 28.5176 25.6191 28.0605V26.5049C25.6191 26.0479 25.707 25.7402 25.8828 25.582C26.0762 25.4062 26.4014 25.3184 26.8584 25.3184H28.4141C28.8711 25.3184 29.1875 25.4062 29.3633 25.582C29.5566 25.7402 29.6533 26.0479 29.6533 26.5049V28.0605C29.6533 28.5176 29.5566 28.834 29.3633 29.0098C29.1875 29.1855 28.8711 29.2734 28.4141 29.2734H26.8584ZM35.6123 29.2734C35.1553 29.2734 34.8389 29.1855 34.6631 29.0098C34.4873 28.834 34.3994 28.5176 34.3994 28.0605V26.5049C34.3994 26.0479 34.4873 25.7402 34.6631 25.582C34.8389 25.4062 35.1553 25.3184 35.6123 25.3184H37.168C37.6426 25.3184 37.9678 25.4062 38.1436 25.582C38.3193 25.7402 38.4072 26.0479 38.4072 26.5049V28.0605C38.4072 28.5176 38.3193 28.834 38.1436 29.0098C37.9678 29.1855 37.6426 29.2734 37.168 29.2734H35.6123ZM44.3926 29.2734C43.918 29.2734 43.5928 29.1855 43.417 29.0098C43.2412 28.834 43.1533 28.5176 43.1533 28.0605V26.5049C43.1533 26.0479 43.2412 25.7402 43.417 25.582C43.5928 25.4062 43.918 25.3184 44.3926 25.3184H45.9219C46.3965 25.3184 46.7217 25.4062 46.8975 25.582C47.0732 25.7402 47.1611 26.0479 47.1611 26.5049V28.0605C47.1611 28.5176 47.0732 28.834 46.8975 29.0098C46.7217 29.1855 46.3965 29.2734 45.9219 29.2734H44.3926ZM18.1045 37.8955C17.6299 37.8955 17.3047 37.8076 17.1289 37.6318C16.9531 37.4561 16.8652 37.1396 16.8652 36.6826V35.1533C16.8652 34.6787 16.9531 34.3623 17.1289 34.2041C17.3047 34.0283 17.6299 33.9404 18.1045 33.9404H19.6602C20.1172 33.9404 20.4336 34.0283 20.6094 34.2041C20.7852 34.3623 20.873 34.6787 20.873 35.1533V36.6826C20.873 37.1396 20.7852 37.4561 20.6094 37.6318C20.4336 37.8076 20.1172 37.8955 19.6602 37.8955H18.1045ZM26.8584 37.8955C26.4014 37.8955 26.0762 37.8076 25.8828 37.6318C25.707 37.4561 25.6191 37.1396 25.6191 36.6826V35.1533C25.6191 34.6787 25.707 34.3623 25.8828 34.2041C26.0762 34.0283 26.4014 33.9404 26.8584 33.9404H28.4141C28.8711 33.9404 29.1875 34.0283 29.3633 34.2041C29.5566 34.3623 29.6533 34.6787 29.6533 35.1533V36.6826C29.6533 37.1396 29.5566 37.4561 29.3633 37.6318C29.1875 37.8076 28.8711 37.8955 28.4141 37.8955H26.8584ZM35.6123 37.8955C35.1553 37.8955 34.8389 37.8076 34.6631 37.6318C34.4873 37.4561 34.3994 37.1396 34.3994 36.6826V35.1533C34.3994 34.6787 34.4873 34.3623 34.6631 34.2041C34.8389 34.0283 35.1553 33.9404 35.6123 33.9404H37.168C37.6426 33.9404 37.9678 34.0283 38.1436 34.2041C38.3193 34.3623 38.4072 34.6787 38.4072 35.1533V36.6826C38.4072 37.1396 38.3193 37.4561 38.1436 37.6318C37.9678 37.8076 37.6426 37.8955 37.168 37.8955H35.6123ZM44.3926 37.8955C43.918 37.8955 43.5928 37.8076 43.417 37.6318C43.2412 37.4561 43.1533 37.1396 43.1533 36.6826V35.1533C43.1533 34.6787 43.2412 34.3623 43.417 34.2041C43.5928 34.0283 43.918 33.9404 44.3926 33.9404H45.9219C46.3965 33.9404 46.7217 34.0283 46.8975 34.2041C47.0732 34.3623 47.1611 34.6787 47.1611 35.1533V36.6826C47.1611 37.1396 47.0732 37.4561 46.8975 37.6318C46.7217 37.8076 46.3965 37.8955 45.9219 37.8955H44.3926ZM18.1045 46.5176C17.6299 46.5176 17.3047 46.4385 17.1289 46.2803C16.9531 46.1045 16.8652 45.7793 16.8652 45.3047V43.7754C16.8652 43.3008 16.9531 42.9844 17.1289 42.8262C17.3047 42.6504 17.6299 42.5625 18.1045 42.5625H19.6602C20.1172 42.5625 20.4336 42.6504 20.6094 42.8262C20.7852 42.9844 20.873 43.3008 20.873 43.7754V45.3047C20.873 45.7793 20.7852 46.1045 20.6094 46.2803C20.4336 46.4385 20.1172 46.5176 19.6602 46.5176H18.1045ZM26.8584 46.5176C26.4014 46.5176 26.0762 46.4385 25.8828 46.2803C25.707 46.1045 25.6191 45.7793 25.6191 45.3047V43.7754C25.6191 43.3008 25.707 42.9844 25.8828 42.8262C26.0762 42.6504 26.4014 42.5625 26.8584 42.5625H28.4141C28.8711 42.5625 29.1875 42.6504 29.3633 42.8262C29.5566 42.9844 29.6533 43.3008 29.6533 43.7754V45.3047C29.6533 45.7793 29.5566 46.1045 29.3633 46.2803C29.1875 46.4385 28.8711 46.5176 28.4141 46.5176H26.8584ZM35.6123 46.5176C35.1553 46.5176 34.8389 46.4385 34.6631 46.2803C34.4873 46.1045 34.3994 45.7793 34.3994 45.3047V43.7754C34.3994 43.3008 34.4873 42.9844 34.6631 42.8262C34.8389 42.6504 35.1553 42.5625 35.6123 42.5625H37.168C37.6426 42.5625 37.9678 42.6504 38.1436 42.8262C38.3193 42.9844 38.4072 43.3008 38.4072 43.7754V45.3047C38.4072 45.7793 38.3193 46.1045 38.1436 46.2803C37.9678 46.4385 37.6426 46.5176 37.168 46.5176H35.6123Z" fill="black"/>
</svg>
