<svg width="64" height="64" viewBox="0 0 64 64" fill="none" xmlns="http://www.w3.org/2000/svg">
<path d="M15.7578 31.9629C15.7578 31.6289 15.8193 31.3213 15.9424 31.04C16.0654 30.7412 16.25 30.4688 16.4961 30.2227L37.4053 9.76172C37.8799 9.30469 38.4512 9.07617 39.1191 9.07617C39.5762 9.07617 39.9805 9.18164 40.332 9.39258C40.7012 9.60352 40.9912 9.89355 41.2021 10.2627C41.4307 10.6143 41.5449 11.0186 41.5449 11.4756C41.5449 12.126 41.3076 12.6973 40.833 13.1895L21.6377 31.9629L40.833 50.7363C41.3076 51.2285 41.5449 51.7998 41.5449 52.4502C41.5449 52.9072 41.4307 53.3115 41.2021 53.6631C40.9912 54.0322 40.7012 54.3223 40.332 54.5332C39.9805 54.7441 39.5762 54.8496 39.1191 54.8496C38.4512 54.8496 37.8799 54.6123 37.4053 54.1377L16.4961 33.7031C16.25 33.457 16.0654 33.1934 15.9424 32.9121C15.8193 32.6133 15.7578 32.2969 15.7578 31.9629Z" fill="black"/>
</svg>
