<svg width="64" height="64" viewBox="0 0 64 64" fill="none" xmlns="http://www.w3.org/2000/svg">
<path d="M48.2686 31.9629C48.2686 32.2969 48.1982 32.6133 48.0576 32.9121C47.9346 33.1934 47.75 33.457 47.5039 33.7031L26.6211 54.1377C26.1465 54.6123 25.5664 54.8496 24.8809 54.8496C24.4414 54.8496 24.0371 54.7441 23.668 54.5332C23.2988 54.3223 23.0088 54.0322 22.7979 53.6631C22.5869 53.3115 22.4814 52.9072 22.4814 52.4502C22.4814 51.7998 22.71 51.2285 23.167 50.7363L42.3623 31.9629L23.167 13.1895C22.71 12.6973 22.4814 12.126 22.4814 11.4756C22.4814 11.0186 22.5869 10.6143 22.7979 10.2627C23.0088 9.89355 23.2988 9.60352 23.668 9.39258C24.0371 9.18164 24.4414 9.07617 24.8809 9.07617C25.5664 9.07617 26.1465 9.30469 26.6211 9.76172L47.5039 30.2227C47.75 30.4688 47.9346 30.7412 48.0576 31.04C48.1982 31.3213 48.2686 31.6289 48.2686 31.9629Z" fill="black"/>
</svg>
