<svg width="64" height="64" viewBox="0 0 64 64" fill="none" xmlns="http://www.w3.org/2000/svg">
<path d="M11.7764 52.2129C11.46 51.9141 11.249 51.5625 11.1436 51.1582C11.0557 50.7539 11.0645 50.3496 11.1699 49.9453C11.2754 49.541 11.4775 49.1895 11.7764 48.8906L28.6514 31.9893L11.7764 15.1143C11.4775 14.8154 11.2754 14.4639 11.1699 14.0596C11.082 13.6553 11.082 13.251 11.1699 12.8467C11.2754 12.4424 11.4775 12.0908 11.7764 11.792C12.0752 11.4756 12.4268 11.2734 12.8311 11.1855C13.2354 11.0801 13.6396 11.0801 14.0439 11.1855C14.4658 11.2734 14.8262 11.4756 15.125 11.792L32 28.667L48.875 11.792C49.1738 11.4756 49.5254 11.2734 49.9297 11.1855C50.334 11.0801 50.7383 11.0801 51.1426 11.1855C51.5469 11.2734 51.9072 11.4756 52.2236 11.792C52.5225 12.0908 52.7246 12.4424 52.8301 12.8467C52.9355 13.251 52.9355 13.6553 52.8301 14.0596C52.7246 14.4639 52.5225 14.8154 52.2236 15.1143L35.3486 31.9893L52.2236 48.8906C52.5225 49.1895 52.7158 49.541 52.8037 49.9453C52.9092 50.3496 52.9092 50.7539 52.8037 51.1582C52.7158 51.5625 52.5225 51.9141 52.2236 52.2129C51.9248 52.5293 51.5645 52.7314 51.1426 52.8193C50.7383 52.9248 50.334 52.9248 49.9297 52.8193C49.5254 52.7139 49.1738 52.5117 48.875 52.2129L32 35.3379L15.125 52.2129C14.8262 52.5117 14.4746 52.7139 14.0703 52.8193C13.666 52.9248 13.2617 52.9248 12.8574 52.8193C12.4531 52.7139 12.0928 52.5117 11.7764 52.2129Z" fill="black"/>
</svg>
