<svg width="64" height="64" viewBox="0 0 64 64" fill="none" xmlns="http://www.w3.org/2000/svg">
<path d="M10.6953 21.5479C9.25391 21.5479 8.12891 21.1436 7.32031 20.335C6.5293 19.5264 6.13379 18.375 6.13379 16.8809V11.2646C6.13379 9.78809 6.5293 8.64551 7.32031 7.83691C8.12891 7.01074 9.25391 6.59766 10.6953 6.59766H16.5225C17.9639 6.59766 19.0801 7.01074 19.8711 7.83691C20.6797 8.64551 21.084 9.78809 21.084 11.2646V16.8809C21.084 18.375 20.6797 19.5264 19.8711 20.335C19.0801 21.1436 17.9639 21.5479 16.5225 21.5479H10.6953ZM11.1963 17.9355H16.0215C16.4785 17.9355 16.8301 17.8125 17.0762 17.5664C17.3398 17.3203 17.4717 16.9424 17.4717 16.4326V11.7129C17.4717 11.2207 17.3398 10.8516 17.0762 10.6055C16.8301 10.3594 16.4785 10.2363 16.0215 10.2363H11.1963C10.7217 10.2363 10.3613 10.3594 10.1152 10.6055C9.88672 10.8516 9.77246 11.2207 9.77246 11.7129V16.4326C9.77246 16.9424 9.88672 17.3203 10.1152 17.5664C10.3613 17.8125 10.7217 17.9355 11.1963 17.9355ZM29.0469 21.5479C27.6055 21.5479 26.4893 21.1436 25.6982 20.335C24.9072 19.5264 24.5117 18.375 24.5117 16.8809V11.2646C24.5117 9.78809 24.9072 8.64551 25.6982 7.83691C26.4893 7.01074 27.6055 6.59766 29.0469 6.59766H34.9004C36.3418 6.59766 37.458 7.01074 38.249 7.83691C39.04 8.64551 39.4355 9.78809 39.4355 11.2646V16.8809C39.4355 18.375 39.04 19.5264 38.249 20.335C37.458 21.1436 36.3418 21.5479 34.9004 21.5479H29.0469ZM29.5479 17.9355H34.3994C34.8564 17.9355 35.208 17.8125 35.4541 17.5664C35.7002 17.3203 35.8232 16.9424 35.8232 16.4326V11.7129C35.8232 11.2207 35.7002 10.8516 35.4541 10.6055C35.208 10.3594 34.8564 10.2363 34.3994 10.2363H29.5479C29.0732 10.2363 28.7129 10.3594 28.4668 10.6055C28.2383 10.8516 28.124 11.2207 28.124 11.7129V16.4326C28.124 16.9424 28.2383 17.3203 28.4668 17.5664C28.7129 17.8125 29.0732 17.9355 29.5479 17.9355ZM47.4512 21.5479C46.0098 21.5479 44.8848 21.1436 44.0762 20.335C43.2852 19.5264 42.8896 18.375 42.8896 16.8809V11.2646C42.8896 9.78809 43.2852 8.64551 44.0762 7.83691C44.8848 7.01074 46.0098 6.59766 47.4512 6.59766H53.2783C54.7197 6.59766 55.8359 7.01074 56.627 7.83691C57.4355 8.64551 57.8398 9.78809 57.8398 11.2646V16.8809C57.8398 18.375 57.4355 19.5264 56.627 20.335C55.8359 21.1436 54.7197 21.5479 53.2783 21.5479H47.4512ZM47.9521 17.9355H52.7773C53.2344 17.9355 53.5859 17.8125 53.832 17.5664C54.0781 17.3203 54.2012 16.9424 54.2012 16.4326V11.7129C54.2012 11.2207 54.0781 10.8516 53.832 10.6055C53.5859 10.3594 53.2344 10.2363 52.7773 10.2363H47.9521C47.4775 10.2363 47.1172 10.3594 46.8711 10.6055C46.625 10.8516 46.502 11.2207 46.502 11.7129V16.4326C46.502 16.9424 46.625 17.3203 46.8711 17.5664C47.1172 17.8125 47.4775 17.9355 47.9521 17.9355ZM10.6953 39.3984C9.25391 39.3984 8.12891 38.9941 7.32031 38.1855C6.5293 37.377 6.13379 36.2344 6.13379 34.7578V29.1152C6.13379 27.6211 6.5293 26.4697 7.32031 25.6611C8.12891 24.8525 9.25391 24.4482 10.6953 24.4482H16.5225C17.9639 24.4482 19.0801 24.8525 19.8711 25.6611C20.6797 26.4697 21.084 27.6211 21.084 29.1152V34.7578C21.084 36.2344 20.6797 37.377 19.8711 38.1855C19.0801 38.9941 17.9639 39.3984 16.5225 39.3984H10.6953ZM11.1963 35.7861H16.0215C16.4785 35.7861 16.8301 35.6631 17.0762 35.417C17.3398 35.1533 17.4717 34.7754 17.4717 34.2832V29.5371C17.4717 29.0625 17.3398 28.7021 17.0762 28.4561C16.8301 28.1924 16.4785 28.0605 16.0215 28.0605H11.1963C10.7217 28.0605 10.3613 28.1924 10.1152 28.4561C9.88672 28.7021 9.77246 29.0625 9.77246 29.5371V34.2832C9.77246 34.7754 9.88672 35.1533 10.1152 35.417C10.3613 35.6631 10.7217 35.7861 11.1963 35.7861ZM29.0469 39.3984C27.6055 39.3984 26.4893 38.9941 25.6982 38.1855C24.9072 37.377 24.5117 36.2344 24.5117 34.7578V29.1152C24.5117 27.6211 24.9072 26.4697 25.6982 25.6611C26.4893 24.8525 27.6055 24.4482 29.0469 24.4482H34.9004C36.3418 24.4482 37.458 24.8525 38.249 25.6611C39.04 26.4697 39.4355 27.6211 39.4355 29.1152V34.7578C39.4355 36.2344 39.04 37.377 38.249 38.1855C37.458 38.9941 36.3418 39.3984 34.9004 39.3984H29.0469ZM29.5479 35.7861H34.3994C34.8564 35.7861 35.208 35.6631 35.4541 35.417C35.7002 35.1533 35.8232 34.7754 35.8232 34.2832V29.5371C35.8232 29.0625 35.7002 28.7021 35.4541 28.4561C35.208 28.1924 34.8564 28.0605 34.3994 28.0605H29.5479C29.0732 28.0605 28.7129 28.1924 28.4668 28.4561C28.2383 28.7021 28.124 29.0625 28.124 29.5371V34.2832C28.124 34.7754 28.2383 35.1533 28.4668 35.417C28.7129 35.6631 29.0732 35.7861 29.5479 35.7861ZM47.4512 39.3984C46.0098 39.3984 44.8848 38.9941 44.0762 38.1855C43.2852 37.377 42.8896 36.2344 42.8896 34.7578V29.1152C42.8896 27.6211 43.2852 26.4697 44.0762 25.6611C44.8848 24.8525 46.0098 24.4482 47.4512 24.4482H53.2783C54.7197 24.4482 55.8359 24.8525 56.627 25.6611C57.4355 26.4697 57.8398 27.6211 57.8398 29.1152V34.7578C57.8398 36.2344 57.4355 37.377 56.627 38.1855C55.8359 38.9941 54.7197 39.3984 53.2783 39.3984H47.4512ZM47.9521 35.7861H52.7773C53.2344 35.7861 53.5859 35.6631 53.832 35.417C54.0781 35.1533 54.2012 34.7754 54.2012 34.2832V29.5371C54.2012 29.0625 54.0781 28.7021 53.832 28.4561C53.5859 28.1924 53.2344 28.0605 52.7773 28.0605H47.9521C47.4775 28.0605 47.1172 28.1924 46.8711 28.4561C46.625 28.7021 46.502 29.0625 46.502 29.5371V34.2832C46.502 34.7754 46.625 35.1533 46.8711 35.417C47.1172 35.6631 47.4775 35.7861 47.9521 35.7861ZM10.6953 57.249C9.25391 57.249 8.12891 56.8447 7.32031 56.0361C6.5293 55.2275 6.13379 54.0762 6.13379 52.582V46.9658C6.13379 45.4717 6.5293 44.3203 7.32031 43.5117C8.12891 42.7031 9.25391 42.2988 10.6953 42.2988H16.5225C17.9639 42.2988 19.0801 42.7031 19.8711 43.5117C20.6797 44.3203 21.084 45.4717 21.084 46.9658V52.582C21.084 54.0762 20.6797 55.2275 19.8711 56.0361C19.0801 56.8447 17.9639 57.249 16.5225 57.249H10.6953ZM11.1963 53.6104H16.0215C16.4785 53.6104 16.8301 53.4873 17.0762 53.2412C17.3398 52.9951 17.4717 52.626 17.4717 52.1338V47.4141C17.4717 46.9043 17.3398 46.5264 17.0762 46.2803C16.8301 46.0342 16.4785 45.9111 16.0215 45.9111H11.1963C10.7217 45.9111 10.3613 46.0342 10.1152 46.2803C9.88672 46.5264 9.77246 46.9043 9.77246 47.4141V52.1338C9.77246 52.626 9.88672 52.9951 10.1152 53.2412C10.3613 53.4873 10.7217 53.6104 11.1963 53.6104ZM29.0469 57.249C27.6055 57.249 26.4893 56.8447 25.6982 56.0361C24.9072 55.2275 24.5117 54.0762 24.5117 52.582V46.9658C24.5117 45.4717 24.9072 44.3203 25.6982 43.5117C26.4893 42.7031 27.6055 42.2988 29.0469 42.2988H34.9004C36.3418 42.2988 37.458 42.7031 38.249 43.5117C39.04 44.3203 39.4355 45.4717 39.4355 46.9658V52.582C39.4355 54.0762 39.04 55.2275 38.249 56.0361C37.458 56.8447 36.3418 57.249 34.9004 57.249H29.0469ZM29.5479 53.6104H34.3994C34.8564 53.6104 35.208 53.4873 35.4541 53.2412C35.7002 52.9951 35.8232 52.626 35.8232 52.1338V47.4141C35.8232 46.9043 35.7002 46.5264 35.4541 46.2803C35.208 46.0342 34.8564 45.9111 34.3994 45.9111H29.5479C29.0732 45.9111 28.7129 46.0342 28.4668 46.2803C28.2383 46.5264 28.124 46.9043 28.124 47.4141V52.1338C28.124 52.626 28.2383 52.9951 28.4668 53.2412C28.7129 53.4873 29.0732 53.6104 29.5479 53.6104ZM47.4512 57.249C46.0098 57.249 44.8848 56.8447 44.0762 56.0361C43.2852 55.2275 42.8896 54.0762 42.8896 52.582V46.9658C42.8896 45.4717 43.2852 44.3203 44.0762 43.5117C44.8848 42.7031 46.0098 42.2988 47.4512 42.2988H53.2783C54.7197 42.2988 55.8359 42.7031 56.627 43.5117C57.4355 44.3203 57.8398 45.4717 57.8398 46.9658V52.582C57.8398 54.0762 57.4355 55.2275 56.627 56.0361C55.8359 56.8447 54.7197 57.249 53.2783 57.249H47.4512ZM47.9521 53.6104H52.7773C53.2344 53.6104 53.5859 53.4873 53.832 53.2412C54.0781 52.9951 54.2012 52.626 54.2012 52.1338V47.4141C54.2012 46.9043 54.0781 46.5264 53.832 46.2803C53.5859 46.0342 53.2344 45.9111 52.7773 45.9111H47.9521C47.4775 45.9111 47.1172 46.0342 46.8711 46.2803C46.625 46.5264 46.502 46.9043 46.502 47.4141V52.1338C46.502 52.626 46.625 52.9951 46.8711 53.2412C47.1172 53.4873 47.4775 53.6104 47.9521 53.6104Z" fill="black"/>
</svg>
