<svg width="64" height="64" viewBox="0 0 64 64" fill="none" xmlns="http://www.w3.org/2000/svg">
<path d="M24.1953 50.499C23.7031 50.499 23.3076 50.3584 23.0088 50.0771C22.71 49.7959 22.5518 49.418 22.5342 48.9434L21.7432 20.7568C21.7256 20.2998 21.8662 19.9307 22.165 19.6494C22.4814 19.3506 22.8857 19.2012 23.3779 19.2012C23.8525 19.2012 24.2393 19.3418 24.5381 19.623C24.8545 19.9043 25.0127 20.2734 25.0127 20.7305L25.8301 48.9434C25.8301 49.4004 25.6807 49.7783 25.3818 50.0771C25.083 50.3584 24.6875 50.499 24.1953 50.499ZM32 50.499C31.5078 50.499 31.1035 50.3584 30.7871 50.0771C30.4707 49.7783 30.3125 49.4004 30.3125 48.9434V20.7568C30.3125 20.2998 30.4707 19.9307 30.7871 19.6494C31.1035 19.3506 31.5078 19.2012 32 19.2012C32.5098 19.2012 32.9229 19.3506 33.2393 19.6494C33.5557 19.9307 33.7139 20.2998 33.7139 20.7568V48.9434C33.7139 49.4004 33.5557 49.7783 33.2393 50.0771C32.9229 50.3584 32.5098 50.499 32 50.499ZM39.8311 50.499C39.3213 50.499 38.917 50.3584 38.6182 50.0771C38.3193 49.7783 38.1787 49.4004 38.1963 48.9434L38.9873 20.7568C39.0049 20.2822 39.1631 19.9043 39.4619 19.623C39.7607 19.3418 40.1475 19.2012 40.6221 19.2012C41.1318 19.2012 41.5361 19.3506 41.835 19.6494C42.1338 19.9307 42.2744 20.2998 42.2568 20.7568L41.4658 48.9434C41.4482 49.418 41.29 49.7959 40.9912 50.0771C40.6924 50.3584 40.3057 50.499 39.8311 50.499ZM20.4248 12.3193V6.41309C20.4248 4.51465 21.0049 3.02051 22.165 1.93066C23.3428 0.823242 24.9424 0.269531 26.9639 0.269531H36.9834C39.0049 0.269531 40.5957 0.823242 41.7559 1.93066C42.9336 3.02051 43.5225 4.51465 43.5225 6.41309V12.3193H39.3301V6.67676C39.3301 5.93848 39.084 5.34082 38.5918 4.88379C38.1172 4.42676 37.4844 4.19824 36.6934 4.19824H27.2539C26.4629 4.19824 25.8213 4.42676 25.3291 4.88379C24.8545 5.34082 24.6172 5.93848 24.6172 6.67676V12.3193H20.4248ZM8.4541 14.4287C7.92676 14.4287 7.46094 14.2354 7.05664 13.8486C6.66992 13.4443 6.47656 12.9697 6.47656 12.4248C6.47656 11.8975 6.66992 11.4404 7.05664 11.0537C7.46094 10.6494 7.92676 10.4473 8.4541 10.4473H55.5723C56.0996 10.4473 56.5566 10.6406 56.9434 11.0273C57.3301 11.4141 57.5234 11.8799 57.5234 12.4248C57.5234 12.9697 57.3301 13.4443 56.9434 13.8486C56.5742 14.2354 56.1172 14.4287 55.5723 14.4287H8.4541ZM19.9238 58.9893C18.0254 58.9893 16.4873 58.4268 15.3096 57.3018C14.1494 56.1943 13.5254 54.6914 13.4375 52.793L11.5654 13.9277H15.7051L17.5771 52.3184C17.6123 53.0918 17.8848 53.7334 18.3945 54.2432C18.9043 54.7529 19.5371 55.0078 20.293 55.0078H43.6807C44.4541 55.0078 45.0957 54.7529 45.6055 54.2432C46.1152 53.751 46.3877 53.1094 46.4229 52.3184L48.1895 13.9277H52.4346L50.5889 52.7666C50.501 54.665 49.8682 56.1768 48.6904 57.3018C47.5127 58.4268 45.9834 58.9893 44.1025 58.9893H19.9238Z" fill="black"/>
</svg>
