<svg width="64" height="64" viewBox="0 0 64 64" fill="none" xmlns="http://www.w3.org/2000/svg">
<path d="M32 58.8574C28.291 58.8574 24.8105 58.1543 21.5586 56.748C18.3066 55.3594 15.4502 53.4346 12.9893 50.9736C10.5283 48.5127 8.59473 45.6562 7.18848 42.4043C5.7998 39.1523 5.10547 35.6719 5.10547 31.9629C5.10547 28.2539 5.7998 24.7734 7.18848 21.5215C8.59473 18.2695 10.5283 15.4131 12.9893 12.9521C15.4502 10.4736 18.3066 8.54004 21.5586 7.15137C24.8105 5.7627 28.291 5.06836 32 5.06836C35.709 5.06836 39.1895 5.7627 42.4414 7.15137C45.6934 8.54004 48.5498 10.4736 51.0107 12.9521C53.4717 15.4131 55.3965 18.2695 56.7852 21.5215C58.1914 24.7734 58.8945 28.2539 58.8945 31.9629C58.8945 35.6719 58.1914 39.1523 56.7852 42.4043C55.3965 45.6562 53.4717 48.5127 51.0107 50.9736C48.5498 53.4346 45.6934 55.3594 42.4414 56.748C39.1895 58.1543 35.709 58.8574 32 58.8574ZM32 54.375C35.0938 54.375 37.9941 53.7949 40.7012 52.6348C43.4082 51.4746 45.79 49.8662 47.8467 47.8096C49.9033 45.7529 51.5117 43.3711 52.6719 40.6641C53.832 37.957 54.4121 35.0566 54.4121 31.9629C54.4121 28.8691 53.832 25.9688 52.6719 23.2617C51.5117 20.5371 49.9033 18.1553 47.8467 16.1162C45.79 14.0596 43.4082 12.4512 40.7012 11.291C37.9941 10.1309 35.0938 9.55078 32 9.55078C28.9062 9.55078 26.0059 10.1309 23.2988 11.291C20.5918 12.4512 18.21 14.0596 16.1533 16.1162C14.0967 18.1553 12.4883 20.5371 11.3281 23.2617C10.168 25.9688 9.58789 28.8691 9.58789 31.9629C9.58789 35.0566 10.168 37.957 11.3281 40.6641C12.4883 43.3711 14.0967 45.7529 16.1533 47.8096C18.21 49.8662 20.5918 51.4746 23.2988 52.6348C26.0059 53.7949 28.9062 54.375 32 54.375ZM32 45.252C31.7363 45.252 31.4814 45.208 31.2354 45.1201C31.0068 45.0146 30.752 44.8301 30.4707 44.5664L21.7959 36.1816C21.585 35.9707 21.4268 35.7598 21.3213 35.5488C21.2158 35.3203 21.1631 35.0654 21.1631 34.7842C21.1631 34.2568 21.3389 33.8174 21.6904 33.4658C22.0596 33.1143 22.5166 32.9385 23.0615 32.9385C23.6592 32.9385 24.1426 33.1494 24.5117 33.5713L28.5195 37.8428L30.0752 39.4775L29.917 35.5225V20.7041C29.917 20.1592 30.1191 19.6846 30.5234 19.2803C30.9453 18.876 31.4375 18.6738 32 18.6738C32.5801 18.6738 33.0723 18.876 33.4766 19.2803C33.8984 19.6846 34.1094 20.1592 34.1094 20.7041V35.5225L33.9512 39.4775L35.4805 37.8428L39.4883 33.5713C39.8574 33.1494 40.332 32.9385 40.9121 32.9385C41.457 32.9385 41.9141 33.1143 42.2832 33.4658C42.6523 33.8174 42.8369 34.2568 42.8369 34.7842C42.8369 35.0654 42.7842 35.3203 42.6787 35.5488C42.5732 35.7598 42.4238 35.9707 42.2305 36.1816L33.5293 44.5664C33.2656 44.8301 33.0107 45.0146 32.7646 45.1201C32.5361 45.208 32.2812 45.252 32 45.252Z" fill="black"/>
</svg>
