<svg width="64" height="64" viewBox="0 0 64 64" fill="none" xmlns="http://www.w3.org/2000/svg">
<path d="M16.918 56.1943C14.1758 56.1943 12.1104 55.5088 10.7217 54.1377C9.33301 52.7842 8.63867 50.7451 8.63867 48.0205V17.6455C8.63867 14.9209 9.33301 12.8818 10.7217 11.5283C12.1104 10.1572 14.1758 9.47168 16.918 9.47168H46.792L42.5469 13.7168H16.9971C15.6787 13.7168 14.6592 14.0684 13.9385 14.7715C13.2354 15.4746 12.8838 16.5117 12.8838 17.8828V47.8096C12.8838 49.1807 13.2354 50.2178 13.9385 50.9209C14.6592 51.6064 15.6787 51.9492 16.9971 51.9492H47.8203C48.7344 51.9492 49.5078 51.6064 50.1406 50.9209C50.791 50.2178 51.1162 49.1807 51.1162 47.8096V22.4971L55.3613 18.252V48.0205C55.3613 50.7451 54.7021 52.7842 53.3838 54.1377C52.083 55.5088 50.2461 56.1943 47.873 56.1943H16.918ZM26.5156 39.1084C26.2695 39.2139 26.041 39.1611 25.8301 38.9502C25.6367 38.7217 25.5928 38.4932 25.6982 38.2646L28.0713 33.3076L52.6719 8.70703L56.2842 12.2666L31.6572 36.8672L26.5156 39.1084ZM58.2354 10.3418L54.623 6.70312L56.5479 4.80469C56.9873 4.38281 57.4883 4.1543 58.0508 4.11914C58.6309 4.08398 59.123 4.26855 59.5273 4.67285L60.1338 5.30566C60.5908 5.74512 60.8105 6.25488 60.793 6.83496C60.793 7.39746 60.5732 7.91602 60.1338 8.39062L58.2354 10.3418Z" fill="black"/>
</svg>
