<svg width="64" height="64" viewBox="0 0 64 64" fill="none" xmlns="http://www.w3.org/2000/svg">
<path d="M9.29785 28.1396C8.59473 28.1396 8.01465 27.9023 7.55762 27.4277C7.10059 26.9531 6.87207 26.373 6.87207 25.6875V11.0537C6.87207 9.71777 7.24121 8.68066 7.97949 7.94238C8.73535 7.18652 9.78125 6.80859 11.1172 6.80859H25.751C26.4717 6.80859 27.0605 7.03711 27.5176 7.49414C27.9922 7.95117 28.2295 8.53125 28.2295 9.23438C28.2295 9.9375 27.9922 10.5176 27.5176 10.9746C27.043 11.4141 26.4541 11.6338 25.751 11.6338H23.5625L14.334 11.1064L21.6377 18.041L29.7852 26.1621C30.0137 26.3906 30.1895 26.6631 30.3125 26.9795C30.4355 27.2959 30.4971 27.6299 30.4971 27.9814C30.4971 28.7197 30.251 29.3174 29.7588 29.7744C29.2666 30.2139 28.6426 30.4336 27.8867 30.4336C27.2188 30.4336 26.665 30.2051 26.2256 29.748L18.1045 21.5742L11.1699 14.2705L11.6973 23.4727V25.6875C11.6973 26.3906 11.4688 26.9795 11.0117 27.4541C10.5723 27.9111 10.001 28.1396 9.29785 28.1396ZM38.2227 57.1172C37.5195 57.1172 36.9307 56.8887 36.4561 56.4316C35.9814 55.9746 35.7441 55.3945 35.7441 54.6914C35.7441 53.9883 35.9814 53.4082 36.4561 52.9512C36.9307 52.5117 37.5195 52.292 38.2227 52.292H40.4375L49.666 52.8193L42.3359 45.8848L34.2148 37.7637C33.9688 37.5352 33.7842 37.2627 33.6611 36.9463C33.5381 36.6299 33.4766 36.2959 33.4766 35.9443C33.4766 35.2061 33.7227 34.6172 34.2148 34.1777C34.7246 33.7207 35.3486 33.4922 36.0869 33.4922C36.7725 33.4922 37.335 33.7207 37.7744 34.1777L45.8691 42.3516L52.8301 49.6553L52.2764 40.4531V38.2383C52.2764 37.5352 52.5049 36.9551 52.9619 36.498C53.4189 36.0234 53.9902 35.7861 54.6758 35.7861C55.3789 35.7861 55.959 36.0234 56.416 36.498C56.8906 36.9727 57.1279 37.5527 57.1279 38.2383V52.8721C57.1279 54.208 56.75 55.2451 55.9941 55.9834C55.2559 56.7393 54.21 57.1172 52.8564 57.1172H38.2227Z" fill="black"/>
</svg>
