<svg width="64" height="64" viewBox="0 0 64 64" fill="none" xmlns="http://www.w3.org/2000/svg">
<path d="M32 13.3271C34.9443 13.3271 37.7275 13.686 40.3496 14.4038C42.9863 15.1069 45.418 16.0444 47.6445 17.2163C49.8857 18.3735 51.8853 19.6553 53.6431 21.0615C55.4155 22.4678 56.9243 23.8813 58.1694 25.3022C59.4146 26.7085 60.3667 28.0195 61.0259 29.2354C61.6851 30.4365 62.0146 31.4106 62.0146 32.1577C62.0146 32.9927 61.6045 34.1133 60.7842 35.5195C59.9639 36.9258 58.7773 38.4419 57.2246 40.0679C55.6865 41.6792 53.8408 43.2173 51.6875 44.6821L49.0288 42.0454C50.4204 41.1226 51.6802 40.1704 52.8081 39.189C53.936 38.2075 54.8955 37.2627 55.6865 36.3545C56.4922 35.4463 57.1074 34.626 57.5322 33.8936C57.957 33.1611 58.1694 32.5825 58.1694 32.1577C58.1694 31.7183 57.8545 31.0444 57.2246 30.1362C56.6094 29.228 55.7305 28.1953 54.5879 27.0381C53.4453 25.8662 52.0757 24.687 50.479 23.5005C48.897 22.314 47.1318 21.2153 45.1836 20.2046C43.2354 19.1792 41.1479 18.3589 38.9214 17.7437C36.7095 17.1138 34.4023 16.7988 32 16.7988C30.7402 16.7988 29.5098 16.9014 28.3086 17.1064C27.1221 17.2969 25.9795 17.5605 24.8809 17.8975L21.9585 14.9751C23.4966 14.4771 25.1006 14.0815 26.7705 13.7886C28.4551 13.481 30.1982 13.3271 32 13.3271ZM32 50.9883C29.0703 50.9883 26.2944 50.6294 23.6724 49.9116C21.0649 49.2085 18.6406 48.2783 16.3994 47.1211C14.1729 45.9492 12.1733 44.6602 10.4009 43.2539C8.62842 41.8477 7.1123 40.4414 5.85254 39.0352C4.59277 37.6143 3.62598 36.3032 2.95215 35.1021C2.29297 33.8862 1.96338 32.9048 1.96338 32.1577C1.96338 31.5132 2.2124 30.7002 2.71045 29.7188C3.2085 28.7227 3.93359 27.6313 4.88574 26.4448C5.83789 25.2583 6.98779 24.0498 8.33545 22.8193C9.69775 21.5742 11.2358 20.3877 12.9497 19.2598L15.6743 21.9844C14.1655 22.9512 12.8032 23.9473 11.5874 24.9727C10.3862 25.998 9.35352 26.9941 8.48926 27.9609C7.625 28.9131 6.9585 29.7627 6.48975 30.5098C6.03564 31.2422 5.80859 31.7915 5.80859 32.1577C5.80859 32.6704 6.11621 33.4028 6.73145 34.355C7.34668 35.3071 8.22559 36.3618 9.36816 37.519C10.5254 38.6616 11.895 39.8188 13.4771 40.9907C15.0591 42.1626 16.8242 43.2466 18.7725 44.2427C20.7207 45.2241 22.8081 46.0151 25.0347 46.6157C27.2612 47.2163 29.583 47.5166 32 47.5166C33.3916 47.5166 34.7539 47.4067 36.0869 47.187C37.4346 46.9673 38.731 46.6597 39.9761 46.2642L42.8325 49.1426C41.1919 49.7139 39.4634 50.1606 37.647 50.4829C35.8306 50.8198 33.9482 50.9883 32 50.9883ZM32 19.853C33.6992 19.853 35.2959 20.168 36.79 20.7979C38.2842 21.4277 39.5952 22.3066 40.7231 23.4346C41.8511 24.5479 42.73 25.8516 43.3599 27.3457C44.0044 28.8398 44.3267 30.4438 44.3267 32.1577C44.3267 32.9194 44.2461 33.6592 44.085 34.377C43.9385 35.0947 43.7261 35.7905 43.4478 36.4644L27.6934 20.71C28.3525 20.4463 29.041 20.2412 29.7588 20.0947C30.4912 19.9336 31.2383 19.853 32 19.853ZM32 44.4624C30.2715 44.4624 28.6602 44.1401 27.166 43.4956C25.6719 42.8511 24.3608 41.9648 23.2329 40.8369C22.105 39.6943 21.2188 38.3833 20.5742 36.9038C19.9443 35.4097 19.6294 33.8276 19.6294 32.1577C19.6294 31.2495 19.7246 30.3706 19.915 29.521C20.1201 28.6567 20.4058 27.8438 20.772 27.082L37.0317 43.3198C36.27 43.686 35.4644 43.9717 34.6147 44.1768C33.7651 44.3672 32.8936 44.4624 32 44.4624ZM49.1606 51.186L12.4004 14.4697C12.0781 14.1475 11.917 13.752 11.917 13.2832C11.917 12.7998 12.0781 12.397 12.4004 12.0747C12.7373 11.7378 13.1401 11.5767 13.6089 11.5913C14.0923 11.5913 14.4951 11.7524 14.8174 12.0747L51.5557 48.791C51.8926 49.1279 52.0684 49.5161 52.083 49.9556C52.0977 50.4097 51.9219 50.8198 51.5557 51.186C51.2188 51.5522 50.8159 51.728 50.3472 51.7134C49.8931 51.6987 49.4976 51.5229 49.1606 51.186Z" fill="black"/>
</svg>
