<svg width="64" height="64" viewBox="0 0 64 64" fill="none" xmlns="http://www.w3.org/2000/svg">
<path d="M32 50.9883C29.0703 50.9883 26.2944 50.6294 23.6724 49.9116C21.0649 49.2085 18.6406 48.2783 16.3994 47.1211C14.1729 45.9492 12.1733 44.6602 10.4009 43.2539C8.62842 41.8477 7.1123 40.4414 5.85254 39.0352C4.59277 37.6143 3.62598 36.3032 2.95215 35.1021C2.29297 33.8862 1.96338 32.9048 1.96338 32.1577C1.96338 31.4106 2.29297 30.4365 2.95215 29.2354C3.62598 28.0195 4.59277 26.7085 5.85254 25.3022C7.1123 23.8813 8.62842 22.4678 10.4009 21.0615C12.188 19.6553 14.1948 18.3735 16.4214 17.2163C18.6626 16.0444 21.0869 15.1069 23.6943 14.4038C26.3164 13.686 29.085 13.3271 32 13.3271C34.9443 13.3271 37.7275 13.686 40.3496 14.4038C42.9863 15.1069 45.418 16.0444 47.6445 17.2163C49.8857 18.3735 51.8853 19.6553 53.6431 21.0615C55.4155 22.4678 56.9243 23.8813 58.1694 25.3022C59.4146 26.7085 60.3667 28.0195 61.0259 29.2354C61.6851 30.4365 62.0146 31.4106 62.0146 32.1577C62.0146 32.9048 61.6851 33.8862 61.0259 35.1021C60.3667 36.3032 59.4146 37.6143 58.1694 39.0352C56.9243 40.4414 55.4155 41.8477 53.6431 43.2539C51.8853 44.6602 49.8931 45.9492 47.6665 47.1211C45.4399 48.2783 43.0083 49.2085 40.3716 49.9116C37.7495 50.6294 34.959 50.9883 32 50.9883ZM32 47.5166C34.4023 47.5166 36.7095 47.2163 38.9214 46.6157C41.1479 46.0151 43.2354 45.2241 45.1836 44.2427C47.1318 43.2466 48.897 42.1626 50.479 40.9907C52.0757 39.8188 53.4453 38.6616 54.5879 37.519C55.7305 36.3618 56.6094 35.3071 57.2246 34.355C57.8545 33.4028 58.1694 32.6704 58.1694 32.1577C58.1694 31.7183 57.8545 31.0444 57.2246 30.1362C56.6094 29.228 55.7305 28.1953 54.5879 27.0381C53.4453 25.8662 52.0757 24.687 50.479 23.5005C48.897 22.314 47.1318 21.2153 45.1836 20.2046C43.2354 19.1792 41.1479 18.3589 38.9214 17.7437C36.7095 17.1138 34.4023 16.7988 32 16.7988C29.583 16.7988 27.2612 17.1138 25.0347 17.7437C22.8081 18.3589 20.7207 19.1792 18.7725 20.2046C16.8242 21.2153 15.0591 22.314 13.4771 23.5005C11.895 24.687 10.5254 25.8662 9.36816 27.0381C8.22559 28.1953 7.34668 29.228 6.73145 30.1362C6.11621 31.0444 5.80859 31.7183 5.80859 32.1577C5.80859 32.6704 6.11621 33.4028 6.73145 34.355C7.34668 35.3071 8.22559 36.3618 9.36816 37.519C10.5254 38.6616 11.895 39.8188 13.4771 40.9907C15.0591 42.1626 16.8242 43.2466 18.7725 44.2427C20.7207 45.2241 22.8081 46.0151 25.0347 46.6157C27.2612 47.2163 29.583 47.5166 32 47.5166ZM32 44.4404C30.3008 44.4404 28.7041 44.1255 27.21 43.4956C25.7158 42.8511 24.4048 41.9648 23.2769 40.8369C22.1489 39.709 21.2627 38.3979 20.6182 36.9038C19.9736 35.4097 19.6514 33.813 19.6514 32.1138C19.6514 30.4146 19.9736 28.8179 20.6182 27.3237C21.2627 25.8296 22.1489 24.5186 23.2769 23.3906C24.4048 22.2627 25.7158 21.3838 27.21 20.7539C28.7041 20.1094 30.3008 19.7871 32 19.7871C33.6992 19.7871 35.2886 20.1094 36.7681 20.7539C38.2622 21.3838 39.5732 22.2627 40.7012 23.3906C41.8438 24.5186 42.73 25.8296 43.3599 27.3237C44.0044 28.8179 44.3267 30.4146 44.3267 32.1138C44.3267 33.813 44.0044 35.4097 43.3599 36.9038C42.73 38.3979 41.8438 39.709 40.7012 40.8369C39.5732 41.9648 38.2622 42.8511 36.7681 43.4956C35.2886 44.1255 33.6992 44.4404 32 44.4404ZM32 36.2227C33.1279 36.2227 34.0874 35.8271 34.8784 35.0361C35.6841 34.2305 36.0869 33.2637 36.0869 32.1357C36.0869 31.0078 35.6841 30.0483 34.8784 29.2573C34.0874 28.4517 33.1279 28.0488 32 28.0488C30.8721 28.0488 29.9053 28.4517 29.0996 29.2573C28.3086 30.0483 27.9131 31.0078 27.9131 32.1357C27.9131 33.2637 28.3086 34.2305 29.0996 35.0361C29.9053 35.8271 30.8721 36.2227 32 36.2227Z" fill="black"/>
</svg>
