<svg width="64" height="64" viewBox="0 0 64 64" fill="none" xmlns="http://www.w3.org/2000/svg">
<path d="M14.0967 22.7344C13.5518 22.7344 13.0771 22.5322 12.6729 22.1279C12.2861 21.7236 12.0928 21.249 12.0928 20.7041C12.0928 20.1416 12.2861 19.667 12.6729 19.2803C13.0596 18.876 13.5342 18.6738 14.0967 18.6738H17.2871C17.832 18.6738 18.3066 18.876 18.7109 19.2803C19.1152 19.667 19.3174 20.1416 19.3174 20.7041C19.3174 21.2666 19.1152 21.75 18.7109 22.1543C18.3066 22.541 17.832 22.7344 17.2871 22.7344H14.0967ZM14.0967 31.5146C13.5342 31.5146 13.0596 31.3213 12.6729 30.9346C12.2861 30.5479 12.0928 30.0732 12.0928 29.5107C12.0928 28.9482 12.2861 28.4736 12.6729 28.0869C13.0596 27.7002 13.5342 27.5068 14.0967 27.5068H17.2871C17.8496 27.5068 18.3242 27.7002 18.7109 28.0869C19.1152 28.4736 19.3174 28.9482 19.3174 29.5107C19.3174 30.0732 19.1152 30.5479 18.7109 30.9346C18.3066 31.3213 17.832 31.5146 17.2871 31.5146H14.0967ZM24.6699 22.3652C24.2129 22.3652 23.8262 22.207 23.5098 21.8906C23.1934 21.5742 23.0352 21.1787 23.0352 20.7041C23.0352 20.2471 23.1934 19.8604 23.5098 19.5439C23.8262 19.2275 24.2129 19.0693 24.6699 19.0693H50.2461C50.7031 19.0693 51.0898 19.2275 51.4062 19.5439C51.7227 19.8604 51.8809 20.2471 51.8809 20.7041C51.8809 21.1787 51.7227 21.5742 51.4062 21.8906C51.0898 22.207 50.7031 22.3652 50.2461 22.3652H24.6699ZM24.6699 31.1719C24.2129 31.1719 23.8262 31.0137 23.5098 30.6973C23.1934 30.3633 23.0352 29.9678 23.0352 29.5107C23.0352 29.0361 23.1934 28.6406 23.5098 28.3242C23.8438 28.0078 24.2305 27.8496 24.6699 27.8496H50.2461C50.7031 27.8496 51.0898 28.0166 51.4062 28.3506C51.7227 28.667 51.8809 29.0537 51.8809 29.5107C51.8809 29.9854 51.7227 30.3809 51.4062 30.6973C51.0898 31.0137 50.7031 31.1719 50.2461 31.1719H24.6699ZM9.19238 56.2471C6.43262 56.2471 4.3584 55.5615 2.96973 54.1904C1.59863 52.8369 0.913086 50.8066 0.913086 48.0996V15.8789C0.913086 13.1543 1.59863 11.1152 2.96973 9.76172C4.3584 8.39062 6.43262 7.70508 9.19238 7.70508H54.8076C57.585 7.70508 59.6592 8.39062 61.0303 9.76172C62.4014 11.1328 63.0869 13.1719 63.0869 15.8789V48.0996C63.0869 50.8066 62.4014 52.8369 61.0303 54.1904C59.6592 55.5615 57.585 56.2471 54.8076 56.2471H9.19238ZM9.24512 52.002H54.7549C56.0557 52.002 57.0576 51.6592 57.7607 50.9736C58.4814 50.2705 58.8418 49.2334 58.8418 47.8623V16.1162C58.8418 14.7451 58.4814 13.708 57.7607 13.0049C57.0576 12.3018 56.0557 11.9502 54.7549 11.9502H9.24512C7.92676 11.9502 6.91602 12.3018 6.21289 13.0049C5.50977 13.708 5.1582 14.7451 5.1582 16.1162V47.8623C5.1582 49.2334 5.50977 50.2705 6.21289 50.9736C6.91602 51.6592 7.92676 52.002 9.24512 52.002Z" fill="black"/>
</svg>
