<svg width="64" height="64" viewBox="0 0 64 64" fill="none" xmlns="http://www.w3.org/2000/svg">
<path d="M21.4268 57.2754C19.124 57.2754 17.375 56.6953 16.1797 55.5352C14.9844 54.375 14.3867 52.6523 14.3867 50.3672L23.2461 42.6416C23.7559 42.2197 24.2568 41.9033 24.749 41.6924C25.2588 41.4639 25.7686 41.3496 26.2783 41.3496C26.8584 41.3496 27.4121 41.4551 27.9395 41.666C28.4844 41.877 29.0117 42.2197 29.5215 42.6943L33.7402 46.5176L44.3926 37.0781C44.9375 36.5859 45.5 36.2344 46.0801 36.0234C46.6777 35.7949 47.3018 35.6807 47.9521 35.6807C48.585 35.6807 49.209 35.8037 49.8242 36.0498C50.4395 36.2783 51.002 36.6299 51.5117 37.1045L63.7461 48.6533V50.3408C63.7461 52.6436 63.1484 54.375 61.9531 55.5352C60.7578 56.6953 59.0088 57.2754 56.7061 57.2754H21.4268ZM31.8418 37.6846C30.2949 37.6846 28.9766 37.1309 27.8867 36.0234C26.7969 34.916 26.252 33.5889 26.252 32.042C26.252 30.5303 26.7969 29.2207 27.8867 28.1133C28.9766 27.0059 30.2949 26.4521 31.8418 26.4521C32.8613 26.4521 33.793 26.707 34.6367 27.2168C35.4805 27.7266 36.1572 28.4121 36.667 29.2734C37.1768 30.1172 37.4316 31.04 37.4316 32.042C37.4316 33.5889 36.8779 34.916 35.7705 36.0234C34.6807 37.1309 33.3711 37.6846 31.8418 37.6846ZM2.91699 43.749L-1.40723 19.2539C-1.88184 16.582 -1.55664 14.4551 -0.431641 12.873C0.693359 11.291 2.60937 10.2539 5.31641 9.76172L40.8066 3.5127C43.5137 3.03809 45.6582 3.35449 47.2402 4.46191C48.8398 5.56934 49.8857 7.45898 50.3779 10.1309L51.9072 18.7266H47.6094L46.2383 11.0801C45.9922 9.74414 45.4561 8.79492 44.6299 8.23242C43.8037 7.66992 42.749 7.49414 41.4658 7.70508L6.13379 13.9277C4.83301 14.1563 3.89258 14.6836 3.3125 15.5098C2.73242 16.3184 2.56543 17.3994 2.81152 18.7529L7.05664 42.7998C7.30273 44.1533 7.83008 45.1113 8.63867 45.6738C9.46484 46.2363 10.5283 46.4033 11.8291 46.1748L15.7051 45.4893V49.7871L12.4883 50.3672C9.76367 50.8242 7.61035 50.5078 6.02832 49.418C4.44629 48.3105 3.40918 46.4209 2.91699 43.749ZM21.3213 58.6729C18.5615 58.6729 16.4873 57.9873 15.0986 56.6162C13.7275 55.2627 13.042 53.2236 13.042 50.499V25.6348C13.042 22.9102 13.7275 20.8711 15.0986 19.5176C16.4873 18.1465 18.5615 17.4609 21.3213 17.4609H57.3389C60.0811 17.4609 62.1465 18.1465 63.5352 19.5176C64.9238 20.8887 65.6182 22.9277 65.6182 25.6348V50.499C65.6182 53.2236 64.9238 55.2627 63.5352 56.6162C62.1465 57.9873 60.0811 58.6729 57.3389 58.6729H21.3213ZM21.374 54.4277H57.2598C58.5605 54.4277 59.5713 54.0762 60.292 53.373C61.0127 52.6875 61.373 51.6592 61.373 50.2881V25.8721C61.373 24.501 61.0127 23.4639 60.292 22.7607C59.5713 22.0576 58.5605 21.7061 57.2598 21.7061H21.374C20.0557 21.7061 19.0449 22.0576 18.3418 22.7607C17.6387 23.4639 17.2871 24.501 17.2871 25.8721V50.2881C17.2871 51.6592 17.6387 52.6875 18.3418 53.373C19.0449 54.0762 20.0557 54.4277 21.374 54.4277Z" fill="black"/>
</svg>
