<svg width="64" height="64" viewBox="0 0 64 64" fill="none" xmlns="http://www.w3.org/2000/svg">
<path d="M42.8262 60.5557H21.0732C18.5947 60.5557 16.7139 59.8965 15.4307 58.5781C14.1475 57.2422 13.5059 55.335 13.5059 52.8564L13.5059 11.1699C13.5059 8.67383 14.1475 6.7666 15.4307 5.44824C16.7139 4.1123 18.5947 3.44434 21.0732 3.44434H42.8262C45.3223 3.44434 47.2207 4.1123 48.5215 5.44824C49.8047 6.7666 50.4463 8.67383 50.4463 11.1699V52.8564C50.4463 55.335 49.8047 57.2422 48.5215 58.5781C47.2207 59.8965 45.3223 60.5557 42.8262 60.5557ZM43.0371 56.3105C44.127 56.3105 44.9707 56.0117 45.5684 55.4141C46.166 54.8164 46.4648 53.9727 46.4648 52.8828V11.1172C46.4648 10.0273 46.166 9.18359 45.5684 8.58594C44.9707 7.98828 44.127 7.68945 43.0371 7.68945H20.8623C18.5771 7.68945 17.4346 8.83203 17.4346 11.1172L17.4346 52.8828C17.4346 55.168 18.5771 56.3105 20.8623 56.3105H43.0371ZM35.7598 44.2607C35.7598 45.3154 35.3906 46.2207 34.6523 46.9766C33.8965 47.7148 32.9912 48.084 31.9365 48.084C30.8818 48.084 29.9854 47.7148 29.2471 46.9766C28.4912 46.2207 28.1133 45.3154 28.1133 44.2607C28.1133 43.2236 28.4912 42.3271 29.2471 41.5713C29.9854 40.8154 30.8818 40.4375 31.9365 40.4375C32.9912 40.4375 33.8965 40.8154 34.6523 41.5713C35.3906 42.3096 35.7598 43.2061 35.7598 44.2607ZM35.7598 31.9736C35.7598 33.0107 35.3906 33.9072 34.6523 34.6631C33.8965 35.4014 32.9912 35.7705 31.9365 35.7705C30.8818 35.7705 29.9854 35.4014 29.2471 34.6631C28.4912 33.9072 28.1133 33.0107 28.1133 31.9736C28.1133 30.9189 28.4912 30.0225 29.2471 29.2842C29.9854 28.5283 30.8818 28.1504 31.9365 28.1504C32.9912 28.1504 33.8965 28.5283 34.6523 29.2842C35.3906 30.0225 35.7598 30.9189 35.7598 31.9736ZM35.7598 19.6602C35.7598 20.7148 35.3906 21.6201 34.6523 22.376C33.8965 23.1143 32.9912 23.4834 31.9365 23.4834C30.8818 23.4834 29.9854 23.1143 29.2471 22.376C28.4912 21.6201 28.1133 20.7148 28.1133 19.6602C28.1133 18.6055 28.4912 17.709 29.2471 16.9707C29.9854 16.2148 30.8818 15.8369 31.9365 15.8369C32.9912 15.8369 33.8965 16.2148 34.6523 16.9707C35.3906 17.709 35.7598 18.6055 35.7598 19.6602Z" fill="black"/>
</svg>
