<svg width="64" height="64" viewBox="0 0 64 64" fill="none" xmlns="http://www.w3.org/2000/svg">
<path d="M24.3535 56.959V39.9258C24.3535 39.3281 24.5381 38.8447 24.9072 38.4756C25.2764 38.1064 25.7686 37.9219 26.3838 37.9219H37.6426C38.2578 37.9219 38.7412 38.1064 39.0928 38.4756C39.4619 38.8447 39.6465 39.3281 39.6465 39.9258V56.959H24.3535ZM2.78516 32.3848C2.08203 32.3848 1.52832 32.1738 1.12402 31.752C0.719727 31.3125 0.517578 30.8203 0.517578 30.2754C0.517578 29.5898 0.798828 29.0186 1.36133 28.5615L28.8359 5.49023C29.8203 4.64648 30.875 4.22461 32 4.22461C33.125 4.22461 34.1797 4.64648 35.1641 5.49023L62.6387 28.5615C63.2012 29.0186 63.4824 29.5898 63.4824 30.2754C63.4824 30.8203 63.2803 31.3125 62.876 31.752C62.4893 32.1738 61.9355 32.3848 61.2148 32.3848C60.8457 32.3848 60.5029 32.2969 60.1865 32.1211C59.8877 31.9453 59.6064 31.752 59.3428 31.541L32.9229 9.36621C32.6416 9.12012 32.334 8.99707 32 8.99707C31.666 8.99707 31.3584 9.12012 31.0771 9.36621L4.68359 31.541C4.40234 31.752 4.10352 31.9453 3.78711 32.1211C3.48828 32.2969 3.1543 32.3848 2.78516 32.3848ZM49.165 18.3838V12.082C49.165 11.502 49.3408 11.0449 49.6924 10.7109C50.0439 10.3594 50.501 10.1836 51.0635 10.1836H53.8848C54.4648 10.1836 54.9219 10.3594 55.2559 10.7109C55.6074 11.0449 55.7832 11.502 55.7832 12.082V23.9736L49.165 18.3838ZM14.1758 59.6748C12.2949 59.6748 10.8271 59.165 9.77246 58.1455C8.73535 57.1436 8.2168 55.7109 8.2168 53.8477V24.6328L12.4619 21.7852V52.793C12.4619 53.6543 12.6816 54.3047 13.1211 54.7441C13.5781 55.2012 14.2285 55.4297 15.0723 55.4297H48.9541C49.7979 55.4297 50.4395 55.2012 50.8789 54.7441C51.3184 54.3047 51.5381 53.6543 51.5381 52.793V21.7588L55.7832 24.6328V53.8477C55.7832 55.6934 55.2646 57.126 54.2275 58.1455C53.1904 59.165 51.7314 59.6748 49.8506 59.6748H14.1758Z" fill="black"/>
</svg>
