<svg width="64" height="64" viewBox="0 0 64 64" fill="none" xmlns="http://www.w3.org/2000/svg">
<path d="M9.06055 48.6006C7.86523 47.915 6.95117 47.124 6.31836 46.2275C5.68555 45.3311 5.36914 43.9424 5.36914 42.0615V21.1787C5.36914 19.8076 5.62402 18.6738 6.13379 17.7773C6.66113 16.8633 7.4873 16.0898 8.6123 15.457L27.2539 4.85742C28.8535 3.94336 30.4355 3.48633 32 3.48633C33.5645 3.48633 35.1377 3.94336 36.7197 4.85742L55.3877 15.457C56.4951 16.0898 57.3037 16.8633 57.8135 17.7773C58.3408 18.6738 58.6045 19.8076 58.6045 21.1787V42.0615C58.6045 43.9424 58.2881 45.3311 57.6553 46.2275C57.04 47.124 56.126 47.915 54.9131 48.6006L34.1885 60.3604C33.4326 60.7822 32.6943 60.9932 31.9736 60.9932C31.2705 60.9932 30.5498 60.7822 29.8115 60.3604L9.06055 48.6006ZM11.4336 45.1201L29.917 55.6406V33.7559L9.37695 22.0225V41.9297C9.37695 42.6504 9.52637 43.2568 9.8252 43.749C10.124 44.2412 10.6602 44.6982 11.4336 45.1201ZM52.5664 45.1201C53.3223 44.6982 53.8496 44.2412 54.1484 43.749C54.4473 43.2568 54.5967 42.6504 54.5967 41.9297V22.0225L34.0566 33.7559V55.6406L52.5664 45.1201ZM32 30.0645L40.1475 25.4502L19.792 13.875L11.6445 18.542L32 30.0645ZM44.3926 23.0508L52.3555 18.542L34.9795 8.62793C33.0107 7.48535 31.0244 7.48535 29.0205 8.62793L23.958 11.502L44.3926 23.0508Z" fill="black"/>
</svg>
