<svg width="64" height="64" viewBox="0 0 64 64" fill="none" xmlns="http://www.w3.org/2000/svg">
<path d="M32 58.8574C28.291 58.8574 24.8105 58.1543 21.5586 56.748C18.3066 55.3594 15.4502 53.4346 12.9893 50.9736C10.5283 48.5127 8.59473 45.6562 7.18848 42.4043C5.7998 39.1523 5.10547 35.6719 5.10547 31.9629C5.10547 28.2539 5.7998 24.7734 7.18848 21.5215C8.59473 18.2695 10.5283 15.4131 12.9893 12.9521C15.4502 10.4736 18.3066 8.54004 21.5586 7.15137C24.8105 5.7627 28.291 5.06836 32 5.06836C35.709 5.06836 39.1895 5.7627 42.4414 7.15137C45.6934 8.54004 48.5498 10.4736 51.0107 12.9521C53.4717 15.4131 55.3965 18.2695 56.7852 21.5215C58.1914 24.7734 58.8945 28.2539 58.8945 31.9629C58.8945 35.6719 58.1914 39.1523 56.7852 42.4043C55.3965 45.6562 53.4717 48.5127 51.0107 50.9736C48.5498 53.4346 45.6934 55.3594 42.4414 56.748C39.1895 58.1543 35.709 58.8574 32 58.8574ZM32 54.375C35.0938 54.375 37.9941 53.7949 40.7012 52.6348C43.4082 51.4746 45.79 49.8662 47.8467 47.8096C49.9033 45.7529 51.5117 43.3711 52.6719 40.6641C53.832 37.957 54.4121 35.0566 54.4121 31.9629C54.4121 28.8691 53.832 25.9688 52.6719 23.2617C51.5117 20.5371 49.9033 18.1553 47.8467 16.1162C45.79 14.0596 43.4082 12.4512 40.7012 11.291C37.9941 10.1309 35.0938 9.55078 32 9.55078C28.9062 9.55078 26.0059 10.1309 23.2988 11.291C20.5918 12.4512 18.21 14.0596 16.1533 16.1162C14.0967 18.1553 12.4883 20.5371 11.3281 23.2617C10.168 25.9688 9.58789 28.8691 9.58789 31.9629C9.58789 35.0566 10.168 37.957 11.3281 40.6641C12.4883 43.3711 14.0967 45.7529 16.1533 47.8096C18.21 49.8662 20.5918 51.4746 23.2988 52.6348C26.0059 53.7949 28.9062 54.375 32 54.375ZM27.3857 46.7021C26.8408 46.7021 26.3838 46.5264 26.0146 46.1748C25.6455 45.8232 25.4609 45.3838 25.4609 44.8564C25.4609 44.3291 25.6455 43.8896 26.0146 43.5381C26.3838 43.1865 26.8408 43.0107 27.3857 43.0107H30.6553V30.9082H27.834C27.2891 30.9082 26.832 30.7324 26.4629 30.3809C26.0938 30.0293 25.9092 29.5898 25.9092 29.0625C25.9092 28.5352 26.0938 28.0957 26.4629 27.7441C26.832 27.3926 27.2891 27.2168 27.834 27.2168H32.791C33.459 27.2168 33.9688 27.4365 34.3203 27.876C34.6719 28.2979 34.8477 28.8691 34.8477 29.5898V43.0107H38.1172C38.6621 43.0107 39.1191 43.1865 39.4883 43.5381C39.8574 43.8896 40.042 44.3291 40.042 44.8564C40.042 45.3838 39.8574 45.8232 39.4883 46.1748C39.1191 46.5264 38.6621 46.7021 38.1172 46.7021H27.3857ZM31.7627 22.8135C30.8135 22.8135 30.0049 22.4795 29.3369 21.8115C28.6689 21.1436 28.335 20.335 28.335 19.3857C28.335 18.4189 28.6689 17.6016 29.3369 16.9336C30.0049 16.2656 30.8135 15.9316 31.7627 15.9316C32.7295 15.9316 33.5381 16.2656 34.1885 16.9336C34.8564 17.6016 35.1904 18.4189 35.1904 19.3857C35.1904 20.335 34.8564 21.1436 34.1885 21.8115C33.5381 22.4795 32.7295 22.8135 31.7627 22.8135Z" fill="black"/>
</svg>
