<svg width="64" height="64" viewBox="0 0 64 64" fill="none" xmlns="http://www.w3.org/2000/svg">
<path d="M20.2139 53.4785V10.5H24.459V53.4785H20.2139ZM39.541 53.4785V10.5H43.7861V53.4785H39.541ZM9.19238 56.2471C6.43262 56.2471 4.3584 55.5615 2.96973 54.1904C1.59863 52.8369 0.913086 50.8066 0.913086 48.0996V15.8789C0.913086 13.1543 1.59863 11.1152 2.96973 9.76172C4.3584 8.39062 6.43262 7.70508 9.19238 7.70508H54.8076C57.585 7.70508 59.6592 8.39062 61.0303 9.76172C62.4014 11.1328 63.0869 13.1719 63.0869 15.8789V48.0996C63.0869 50.8066 62.4014 52.8369 61.0303 54.1904C59.6592 55.5615 57.585 56.2471 54.8076 56.2471H9.19238ZM9.24512 52.002H54.7549C56.0557 52.002 57.0576 51.6592 57.7607 50.9736C58.4814 50.2705 58.8418 49.2334 58.8418 47.8623V16.1162C58.8418 14.7451 58.4814 13.708 57.7607 13.0049C57.0576 12.3018 56.0557 11.9502 54.7549 11.9502H9.24512C7.92676 11.9502 6.91602 12.3018 6.21289 13.0049C5.50977 13.708 5.1582 14.7451 5.1582 16.1162V47.8623C5.1582 49.2334 5.50977 50.2705 6.21289 50.9736C6.91602 51.6592 7.92676 52.002 9.24512 52.002Z" fill="black"/>
</svg>
