<svg width="64" height="64" viewBox="0 0 64 64" fill="none" xmlns="http://www.w3.org/2000/svg">
<path d="M32.3164 20.8887C34.0039 21.1875 35.4102 21.627 36.5352 22.207C37.6602 22.7695 38.6357 23.4727 39.4619 24.3164C41.6064 26.4434 43.0303 28.79 43.7334 31.3564C44.4365 33.9053 44.4277 36.4541 43.707 39.0029C43.0039 41.5518 41.5977 43.8809 39.4883 45.9902L30.4707 55.0342C28.3789 57.126 26.0586 58.5234 23.5098 59.2266C20.9609 59.9473 18.4033 59.9561 15.8369 59.2529C13.2881 58.5498 10.9414 57.126 8.79688 54.9814C6.66992 52.8545 5.25488 50.5166 4.55176 47.9678C3.84863 45.4014 3.84863 42.8438 4.55176 40.2949C5.27246 37.7461 6.67871 35.417 8.77051 33.3076L16.5225 25.582C16.3818 26.4434 16.3555 27.3486 16.4434 28.2979C16.5488 29.2295 16.7861 30.1084 17.1553 30.9346L11.9873 36.1025C10.458 37.6318 9.43848 39.3193 8.92871 41.165C8.41895 43.0107 8.41895 44.8652 8.92871 46.7285C9.43848 48.5742 10.458 50.2705 11.9873 51.8174C13.5166 53.3467 15.2041 54.3574 17.0498 54.8496C18.9131 55.3594 20.7676 55.3594 22.6133 54.8496C24.459 54.3398 26.1465 53.3203 27.6758 51.791L36.2979 43.1953C37.8271 41.666 38.8379 39.9785 39.3301 38.1328C39.8398 36.2871 39.8398 34.4414 39.3301 32.5957C38.8203 30.7324 37.8008 29.0273 36.2715 27.4805C35.4102 26.6191 34.3818 25.9336 33.1865 25.4238C32.0088 24.9141 30.5498 24.5889 28.8096 24.4482L32.3164 20.8887ZM31.6572 42.6152C29.9697 42.3164 28.5635 41.8857 27.4385 41.3232C26.3135 40.7432 25.3379 40.0312 24.5117 39.1875C22.3672 37.0605 20.9434 34.7227 20.2402 32.1738C19.5371 29.6074 19.5371 27.0498 20.2402 24.501C20.9609 21.9521 22.376 19.623 24.4854 17.5137L33.4766 8.49609C35.5859 6.38672 37.915 4.98047 40.4639 4.27734C43.0127 3.55664 45.5615 3.54785 48.1104 4.25098C50.6768 4.9541 53.0322 6.37793 55.1768 8.52246C57.3037 10.6494 58.7188 12.9961 59.4219 15.5625C60.125 18.1113 60.1162 20.6602 59.3955 23.209C58.6924 25.7578 57.2949 28.0869 55.2031 30.1963L47.4512 37.9219C47.5918 37.0605 47.6094 36.1641 47.5039 35.2324C47.416 34.3008 47.1875 33.4131 46.8184 32.5693L51.9863 27.4014C53.5156 25.8721 54.5352 24.1846 55.0449 22.3389C55.5547 20.4932 55.5547 18.6475 55.0449 16.8018C54.5352 14.9385 53.5156 13.2422 51.9863 11.7129C50.4395 10.166 48.7432 9.14648 46.8975 8.6543C45.0518 8.14453 43.2061 8.14453 41.3604 8.6543C39.5146 9.16406 37.8184 10.1836 36.2715 11.7129L27.6758 20.3086C26.1465 21.8379 25.127 23.5254 24.6172 25.3711C24.1074 27.2168 24.1074 29.0713 24.6172 30.9346C25.127 32.7803 26.1553 34.4766 27.7021 36.0234C28.5635 36.8848 29.583 37.5703 30.7607 38.0801C31.9561 38.5898 33.4238 38.915 35.1641 39.0557L31.6572 42.6152Z" fill="black"/>
</svg>
