<svg width="64" height="64" viewBox="0 0 64 64" fill="none" xmlns="http://www.w3.org/2000/svg">
<path d="M13.4111 22.1279C12.7607 22.1279 12.1895 21.8818 11.6973 21.3896C11.2051 20.8975 10.959 20.3262 10.959 19.6758C10.959 19.0078 11.2051 18.4365 11.6973 17.9619C12.1895 17.4697 12.7607 17.2236 13.4111 17.2236C14.0967 17.2236 14.6768 17.4609 15.1514 17.9355C15.626 18.4102 15.8633 18.9902 15.8633 19.6758C15.8633 20.3437 15.626 20.9238 15.1514 21.416C14.6768 21.8906 14.0967 22.1279 13.4111 22.1279ZM13.4111 30.1963C12.7607 30.1963 12.1895 29.959 11.6973 29.4844C11.2051 28.9922 10.959 28.4121 10.959 27.7441C10.959 27.0762 11.2051 26.5049 11.6973 26.0303C12.1895 25.5381 12.7607 25.292 13.4111 25.292C14.0967 25.292 14.6768 25.5293 15.1514 26.0039C15.626 26.4785 15.8633 27.0586 15.8633 27.7441C15.8633 28.4297 15.626 29.0098 15.1514 29.4844C14.6768 29.959 14.0967 30.1963 13.4111 30.1963ZM13.4111 38.2383C12.7432 38.2383 12.1631 38.001 11.6709 37.5264C11.1963 37.0518 10.959 36.4717 10.959 35.7861C10.959 35.1182 11.1963 34.5469 11.6709 34.0723C12.1631 33.5977 12.7432 33.3604 13.4111 33.3604C14.0967 33.3604 14.6768 33.5977 15.1514 34.0723C15.626 34.5469 15.8633 35.1182 15.8633 35.7861C15.8633 36.4717 15.626 37.0518 15.1514 37.5264C14.6768 38.001 14.0967 38.2383 13.4111 38.2383ZM13.4111 46.7021C12.7607 46.7021 12.1895 46.4561 11.6973 45.9639C11.2051 45.4717 10.959 44.9004 10.959 44.25C10.959 43.582 11.2051 43.002 11.6973 42.5098C12.1895 42.0176 12.7607 41.7715 13.4111 41.7715C14.0967 41.7715 14.6768 42.0176 15.1514 42.5098C15.626 42.9844 15.8633 43.5645 15.8633 44.25C15.8633 44.918 15.626 45.498 15.1514 45.9902C14.6768 46.4648 14.0967 46.7021 13.4111 46.7021ZM21.374 21.2842C20.8994 21.2842 20.5039 21.126 20.1875 20.8096C19.8711 20.4932 19.7129 20.1152 19.7129 19.6758C19.7129 19.2188 19.8711 18.832 20.1875 18.5156C20.5215 18.1816 20.917 18.0146 21.374 18.0146H51.5381C51.9951 18.0146 52.3818 18.1816 52.6982 18.5156C53.0322 18.832 53.1992 19.2188 53.1992 19.6758C53.1992 20.1152 53.041 20.4932 52.7246 20.8096C52.4082 21.126 52.0127 21.2842 51.5381 21.2842H21.374ZM21.374 29.3789C20.917 29.3789 20.5215 29.2207 20.1875 28.9043C19.8711 28.5879 19.7129 28.2012 19.7129 27.7441C19.7129 27.2871 19.8711 26.9004 20.1875 26.584C20.5215 26.25 20.917 26.083 21.374 26.083H38.0908C38.5479 26.083 38.9346 26.25 39.251 26.584C39.5674 26.9004 39.7256 27.2871 39.7256 27.7441C39.7256 28.2012 39.5674 28.5879 39.251 28.9043C38.9346 29.2207 38.5479 29.3789 38.0908 29.3789H21.374ZM21.374 37.4473C20.8994 37.4473 20.5039 37.2891 20.1875 36.9727C19.8711 36.6562 19.7129 36.2607 19.7129 35.7861C19.7129 35.3467 19.8711 34.9688 20.1875 34.6523C20.5039 34.3359 20.8994 34.1777 21.374 34.1777H51.5381C52.0127 34.1777 52.4082 34.3359 52.7246 34.6523C53.041 34.9688 53.1992 35.3467 53.1992 35.7861C53.1992 36.2607 53.041 36.6562 52.7246 36.9727C52.4082 37.2891 52.0127 37.4473 51.5381 37.4473H21.374ZM21.374 45.8848C20.917 45.8848 20.5215 45.7266 20.1875 45.4102C19.8711 45.0762 19.7129 44.6895 19.7129 44.25C19.7129 43.793 19.8711 43.4062 20.1875 43.0898C20.5039 42.7734 20.8994 42.6152 21.374 42.6152H38.0908C38.5479 42.6152 38.9346 42.7734 39.251 43.0898C39.5674 43.4062 39.7256 43.793 39.7256 44.25C39.7256 44.6895 39.5674 45.0762 39.251 45.4102C38.9346 45.7266 38.5479 45.8848 38.0908 45.8848H21.374ZM9.19238 56.2471C6.43262 56.2471 4.3584 55.5615 2.96973 54.1904C1.59863 52.8369 0.913086 50.8066 0.913086 48.0996V15.8789C0.913086 13.1543 1.59863 11.1152 2.96973 9.76172C4.3584 8.39062 6.43262 7.70508 9.19238 7.70508H54.8076C57.585 7.70508 59.6592 8.39062 61.0303 9.76172C62.4014 11.1328 63.0869 13.1719 63.0869 15.8789V48.0996C63.0869 50.8066 62.4014 52.8369 61.0303 54.1904C59.6592 55.5615 57.585 56.2471 54.8076 56.2471H9.19238ZM9.24512 52.002H54.7549C56.0557 52.002 57.0576 51.6592 57.7607 50.9736C58.4814 50.2705 58.8418 49.2334 58.8418 47.8623V16.1162C58.8418 14.7451 58.4814 13.708 57.7607 13.0049C57.0576 12.3018 56.0557 11.9502 54.7549 11.9502H9.24512C7.92676 11.9502 6.91602 12.3018 6.21289 13.0049C5.50977 13.708 5.1582 14.7451 5.1582 16.1162V47.8623C5.1582 49.2334 5.50977 50.2705 6.21289 50.9736C6.91602 51.6592 7.92676 52.002 9.24512 52.002Z" fill="black"/>
</svg>
