<svg width="64" height="64" viewBox="0 0 64 64" fill="none" xmlns="http://www.w3.org/2000/svg">
<path d="M9.19238 56.2734C6.43262 56.2734 4.3584 55.5879 2.96973 54.2168C1.59863 52.8633 0.913086 50.8242 0.913086 48.0996V15.9053C0.913086 13.1807 1.59863 11.1416 2.96973 9.78809C4.3584 8.41699 6.43262 7.73145 9.19238 7.73145H54.8076C57.585 7.73145 59.6592 8.41699 61.0303 9.78809C62.4014 11.1416 63.0869 13.1807 63.0869 15.9053V48.0996C63.0869 50.8242 62.4014 52.8633 61.0303 54.2168C59.6592 55.5879 57.585 56.2734 54.8076 56.2734H9.19238ZM9.24512 52.0283H54.7549C56.0557 52.0283 57.0576 51.6855 57.7607 51C58.4814 50.2969 58.8418 49.2598 58.8418 47.8887V16.1162C58.8418 14.7451 58.4814 13.7168 57.7607 13.0312C57.0576 12.3281 56.0557 11.9766 54.7549 11.9766H9.24512C7.92676 11.9766 6.91602 12.3281 6.21289 13.0312C5.50977 13.7168 5.1582 14.7451 5.1582 16.1162V47.8887C5.1582 49.2598 5.50977 50.2969 6.21289 51C6.91602 51.6855 7.92676 52.0283 9.24512 52.0283ZM21.0049 52.8457V11.1855H25.1445V52.8457H21.0049ZM10.6162 24.5801C9.80762 24.5801 9.40332 24.1846 9.40332 23.3936V18.4629C9.40332 17.6543 9.80762 17.25 10.6162 17.25H15.5996C16.3906 17.25 16.7861 17.6543 16.7861 18.4629V23.3936C16.7861 23.7451 16.6719 24.0352 16.4434 24.2637C16.2148 24.4746 15.9336 24.5801 15.5996 24.5801H10.6162ZM10.6162 35.6543C10.2646 35.6543 9.97461 35.54 9.74609 35.3115C9.51758 35.083 9.40332 34.8018 9.40332 34.4678V29.4844C9.40332 29.1504 9.50879 28.8691 9.71973 28.6406C9.94824 28.3945 10.2471 28.2715 10.6162 28.2715H15.5996C15.9512 28.2715 16.2324 28.3945 16.4434 28.6406C16.6719 28.8691 16.7861 29.1504 16.7861 29.4844V34.4678C16.7861 34.8018 16.6719 35.083 16.4434 35.3115C16.2148 35.54 15.9336 35.6543 15.5996 35.6543H10.6162ZM10.6162 46.6758C9.80762 46.6758 9.40332 46.2803 9.40332 45.4893V40.5586C9.40332 39.75 9.80762 39.3457 10.6162 39.3457H15.5996C16.3906 39.3457 16.7861 39.75 16.7861 40.5586V45.4893C16.7861 45.8408 16.6719 46.1309 16.4434 46.3594C16.2148 46.5703 15.9336 46.6758 15.5996 46.6758H10.6162Z" fill="black"/>
</svg>
