<svg width="64" height="64" viewBox="0 0 64 64" fill="none" xmlns="http://www.w3.org/2000/svg">
<path d="M12.4092 36.9463C11.4775 36.9463 10.6338 36.7266 9.87793 36.2871C9.12207 35.8301 8.51562 35.2236 8.05859 34.4678C7.61914 33.7119 7.39941 32.877 7.39941 31.9629C7.39941 31.0312 7.61914 30.1875 8.05859 29.4316C8.51562 28.6758 9.12207 28.0781 9.87793 27.6387C10.6338 27.1816 11.4775 26.9531 12.4092 26.9531C13.3232 26.9531 14.1582 27.1816 14.9141 27.6387C15.6699 28.0781 16.2676 28.6758 16.707 29.4316C17.1641 30.1875 17.3926 31.0312 17.3926 31.9629C17.3926 32.877 17.1641 33.7119 16.707 34.4678C16.2676 35.2236 15.6699 35.8301 14.9141 36.2871C14.1582 36.7266 13.3232 36.9463 12.4092 36.9463ZM32 36.9463C31.0684 36.9463 30.2246 36.7266 29.4688 36.2871C28.7129 35.8301 28.1064 35.2236 27.6494 34.4678C27.21 33.7119 26.9902 32.877 26.9902 31.9629C26.9902 31.0312 27.21 30.1875 27.6494 29.4316C28.1064 28.6758 28.7129 28.0781 29.4688 27.6387C30.2246 27.1816 31.0684 26.9531 32 26.9531C32.9141 26.9531 33.749 27.1816 34.5049 27.6387C35.2607 28.0781 35.8584 28.6758 36.2979 29.4316C36.7549 30.1875 36.9834 31.0312 36.9834 31.9629C36.9834 32.877 36.7549 33.7119 36.2979 34.4678C35.8584 35.2236 35.2607 35.8301 34.5049 36.2871C33.749 36.7266 32.9141 36.9463 32 36.9463ZM51.5908 36.9463C50.6592 36.9463 49.8154 36.7266 49.0596 36.2871C48.3037 35.8301 47.6973 35.2236 47.2402 34.4678C46.8008 33.7119 46.5811 32.877 46.5811 31.9629C46.5811 31.0312 46.8008 30.1875 47.2402 29.4316C47.6973 28.6758 48.3037 28.0781 49.0596 27.6387C49.8154 27.1816 50.6592 26.9531 51.5908 26.9531C52.5049 26.9531 53.3398 27.1816 54.0957 27.6387C54.8516 28.0781 55.458 28.6758 55.915 29.4316C56.3721 30.1875 56.6006 31.0312 56.6006 31.9629C56.6006 32.877 56.3721 33.7119 55.915 34.4678C55.458 35.2236 54.8516 35.8301 54.0957 36.2871C53.3398 36.7266 52.5049 36.9463 51.5908 36.9463Z" fill="black"/>
</svg>
