<svg width="64" height="64" viewBox="0 0 64 64" fill="none" xmlns="http://www.w3.org/2000/svg">
<path d="M32 58.8574C28.291 58.8574 24.8105 58.1543 21.5586 56.748C18.3066 55.3594 15.4502 53.4346 12.9893 50.9736C10.5283 48.5127 8.59473 45.6562 7.18848 42.4043C5.7998 39.1523 5.10547 35.6719 5.10547 31.9629C5.10547 28.2539 5.7998 24.7734 7.18848 21.5215C8.59473 18.2695 10.5283 15.4131 12.9893 12.9521C15.4502 10.4736 18.3066 8.54004 21.5586 7.15137C24.8105 5.7627 28.291 5.06836 32 5.06836C35.709 5.06836 39.1895 5.7627 42.4414 7.15137C45.6934 8.54004 48.5498 10.4736 51.0107 12.9521C53.4717 15.4131 55.3965 18.2695 56.7852 21.5215C58.1914 24.7734 58.8945 28.2539 58.8945 31.9629C58.8945 35.6719 58.1914 39.1523 56.7852 42.4043C55.3965 45.6562 53.4717 48.5127 51.0107 50.9736C48.5498 53.4346 45.6934 55.3594 42.4414 56.748C39.1895 58.1543 35.709 58.8574 32 58.8574ZM32 54.375C35.0938 54.375 37.9941 53.7949 40.7012 52.6348C43.4082 51.4746 45.79 49.8662 47.8467 47.8096C49.9033 45.7529 51.5117 43.3711 52.6719 40.6641C53.832 37.957 54.4121 35.0566 54.4121 31.9629C54.4121 28.8691 53.832 25.9688 52.6719 23.2617C51.5117 20.5371 49.9033 18.1553 47.8467 16.1162C45.79 14.0596 43.4082 12.4512 40.7012 11.291C37.9941 10.1309 35.0938 9.55078 32 9.55078C28.9062 9.55078 26.0059 10.1309 23.2988 11.291C20.5918 12.4512 18.21 14.0596 16.1533 16.1162C14.0967 18.1553 12.4883 20.5371 11.3281 23.2617C10.168 25.9688 9.58789 28.8691 9.58789 31.9629C9.58789 35.0566 10.168 37.957 11.3281 40.6641C12.4883 43.3711 14.0967 45.7529 16.1533 47.8096C18.21 49.8662 20.5918 51.4746 23.2988 52.6348C26.0059 53.7949 28.9062 54.375 32 54.375ZM31.4727 37.4209C30.0664 37.4209 29.3633 36.7266 29.3633 35.3379C29.3633 35.2852 29.3633 35.2324 29.3633 35.1797C29.3633 35.1094 29.3633 35.0479 29.3633 34.9951C29.3633 33.6943 29.6709 32.6484 30.2861 31.8574C30.9189 31.0664 31.71 30.3457 32.6592 29.6953C33.8193 28.8867 34.6807 28.2012 35.2432 27.6387C35.8057 27.0586 36.0869 26.3203 36.0869 25.4238C36.0869 24.4219 35.7266 23.6133 35.0059 22.998C34.2852 22.3652 33.3184 22.0488 32.1055 22.0488C31.5254 22.0488 30.9805 22.1455 30.4707 22.3389C29.9785 22.5322 29.5303 22.8135 29.126 23.1826C28.7217 23.5342 28.3613 23.9648 28.0449 24.4746L27.5703 25.1074C27.3418 25.4238 27.0693 25.6787 26.7529 25.8721C26.4541 26.0654 26.085 26.1621 25.6455 26.1621C25.2061 26.1621 24.793 26.0127 24.4062 25.7139C24.0195 25.3975 23.8262 24.9404 23.8262 24.3428C23.8262 24.1143 23.8438 23.8945 23.8789 23.6836C23.9141 23.4727 23.9668 23.2617 24.0371 23.0508C24.4062 21.8379 25.3027 20.7744 26.7266 19.8604C28.168 18.9287 30.0225 18.4629 32.29 18.4629C33.7842 18.4629 35.1641 18.7266 36.4297 19.2539C37.6953 19.7637 38.7148 20.5195 39.4883 21.5215C40.2793 22.5234 40.6748 23.7539 40.6748 25.2129C40.6748 26.7949 40.2617 28.043 39.4355 28.957C38.6094 29.8711 37.5635 30.75 36.2979 31.5938C35.3662 32.209 34.6807 32.7891 34.2412 33.334C33.8018 33.8613 33.582 34.4941 33.582 35.2324C33.582 35.2676 33.582 35.3203 33.582 35.3906C33.582 35.4434 33.582 35.4961 33.582 35.5488C33.582 36.0586 33.3887 36.498 33.002 36.8672C32.6328 37.2363 32.123 37.4209 31.4727 37.4209ZM31.3936 45.2783C30.6377 45.2783 29.9785 45.0146 29.416 44.4873C28.8535 43.9424 28.5723 43.292 28.5723 42.5361C28.5723 41.7803 28.8447 41.1387 29.3896 40.6113C29.9521 40.0664 30.6201 39.7939 31.3936 39.7939C32.167 39.7939 32.835 40.0576 33.3975 40.585C33.96 41.1123 34.2412 41.7627 34.2412 42.5361C34.2412 43.3096 33.96 43.96 33.3975 44.4873C32.835 45.0146 32.167 45.2783 31.3936 45.2783Z" fill="black"/>
</svg>
