<svg width="64" height="64" viewBox="0 0 64 64" fill="none" xmlns="http://www.w3.org/2000/svg">
<path d="M7.08301 42.4043C7.08301 39.0469 7.8125 36.0938 9.27148 33.5449C10.748 30.9785 12.8926 28.9746 15.7051 27.5332C18.5176 26.0918 21.9277 25.3711 25.9355 25.3711H43.6279L51.8281 25.7402L51.3535 26.9531L44.8145 21.3896L37.2207 13.9541C37.0098 13.7432 36.8516 13.5059 36.7461 13.2422C36.6406 12.9785 36.5879 12.6797 36.5879 12.3457C36.5879 11.6602 36.7988 11.1064 37.2207 10.6846C37.6426 10.2451 38.2051 10.0254 38.9082 10.0254C39.5762 10.0254 40.1475 10.2715 40.6221 10.7637L56.126 25.9775C56.3896 26.2236 56.583 26.4961 56.7061 26.7949C56.8467 27.0938 56.917 27.4102 56.917 27.7441C56.917 28.0605 56.8467 28.3682 56.7061 28.667C56.583 28.9658 56.3896 29.2383 56.126 29.4844L40.6221 44.6982C40.1475 45.1904 39.5762 45.4365 38.9082 45.4365C38.2051 45.4365 37.6426 45.2256 37.2207 44.8037C36.7988 44.3643 36.5879 43.8018 36.5879 43.1162C36.5879 42.7822 36.6406 42.4834 36.7461 42.2197C36.8516 41.9561 37.0098 41.7188 37.2207 41.5078L44.8145 34.0986L51.3535 28.5088L51.8281 29.7217L43.6279 30.0908H25.54C22.5342 30.0908 20.0117 30.6006 17.9727 31.6201C15.9336 32.6396 14.3867 34.0635 13.332 35.8916C12.2949 37.7021 11.7764 39.7852 11.7764 42.1406C11.7764 44.5137 12.2949 46.6318 13.332 48.4951C14.3867 50.3584 15.9336 51.8262 17.9727 52.8984C20.0117 53.9883 22.5342 54.5332 25.54 54.5332H31.6045C32.3252 54.5332 32.9053 54.7617 33.3447 55.2188C33.7842 55.6758 34.0039 56.2295 34.0039 56.8799C34.0039 57.5303 33.7842 58.084 33.3447 58.541C32.9053 58.998 32.3252 59.2266 31.6045 59.2266H25.5137C21.5762 59.2266 18.2363 58.5234 15.4941 57.1172C12.752 55.7285 10.6602 53.7686 9.21875 51.2373C7.79492 48.7236 7.08301 45.7793 7.08301 42.4043Z" fill="black"/>
</svg>
