<svg width="64" height="64" viewBox="0 0 64 64" fill="none" xmlns="http://www.w3.org/2000/svg">
<path d="M32 5.06836C35.3398 5.06836 38.4951 5.63965 41.4658 6.78223C44.4365 7.90723 47.1084 9.48926 49.4814 11.5283C51.8545 13.5674 53.8232 15.958 55.3877 18.7002C56.9521 21.4248 57.9893 24.3867 58.499 27.5859H62.2959C62.9287 27.5859 63.4033 27.7178 63.7197 27.9814C64.0361 28.2275 64.1855 28.5615 64.168 28.9834C64.1504 29.3877 63.9746 29.8359 63.6406 30.3281L57.7344 38.7129C57.2949 39.3281 56.7939 39.6357 56.2314 39.6357C55.6689 39.6182 55.1768 39.3105 54.7549 38.7129L48.8486 30.3018C48.5146 29.8271 48.3389 29.3877 48.3213 28.9834C48.3213 28.5615 48.4795 28.2275 48.7959 27.9814C49.1123 27.7178 49.5781 27.5859 50.1934 27.5859H53.9111C53.4189 25.002 52.5137 22.6201 51.1953 20.4404C49.877 18.2432 48.2422 16.3359 46.291 14.7188C44.3398 13.084 42.1514 11.8184 39.7256 10.9219C37.2998 10.0078 34.7246 9.55078 32 9.55078C28.7129 9.55078 25.6279 10.2187 22.7451 11.5547C19.8799 12.873 17.4189 14.666 15.3623 16.9336C14.8174 17.5313 14.2725 17.8477 13.7275 17.8828C13.1826 17.9004 12.6992 17.751 12.2773 17.4346C11.7852 17.083 11.4775 16.5732 11.3545 15.9053C11.2314 15.2373 11.4424 14.6045 11.9873 14.0068C14.4482 11.2471 17.4102 9.06738 20.873 7.46777C24.3359 5.86816 28.0449 5.06836 32 5.06836ZM32 58.8574C28.6602 58.8574 25.5049 58.2861 22.5342 57.1436C19.5635 56.001 16.8916 54.4102 14.5186 52.3711C12.1455 50.332 10.1768 47.9502 8.6123 45.2256C7.04785 42.501 6.01074 39.5391 5.50098 36.3398H1.7041C1.07129 36.3398 0.59668 36.2168 0.280273 35.9707C-0.0361328 35.707 -0.185547 35.3643 -0.167969 34.9424C-0.150391 34.5205 0.0253906 34.0723 0.359375 33.5977L6.26562 25.1865C6.70508 24.5889 7.20605 24.29 7.76855 24.29C8.33105 24.29 8.82324 24.5889 9.24512 25.1865L15.1514 33.624C15.4854 34.0986 15.6523 34.5469 15.6523 34.9688C15.6699 35.373 15.5205 35.707 15.2041 35.9707C14.8877 36.2168 14.4219 36.3398 13.8066 36.3398H10.0889C10.5811 38.9062 11.4863 41.2881 12.8047 43.4854C14.123 45.665 15.7578 47.5723 17.709 49.207C19.6602 50.8418 21.8486 52.1074 24.2744 53.0039C26.7002 53.918 29.2754 54.375 32 54.375C35.2871 54.375 38.3633 53.707 41.2285 52.3711C44.1113 51.0527 46.5811 49.251 48.6377 46.9658C49.1826 46.3857 49.7275 46.0869 50.2725 46.0693C50.8174 46.0342 51.3008 46.166 51.7227 46.4648C52.2148 46.8164 52.5225 47.335 52.6455 48.0205C52.7686 48.6885 52.5576 49.3213 52.0127 49.9189C49.5518 52.6611 46.5898 54.832 43.127 56.4316C39.6641 58.0488 35.9551 58.8574 32 58.8574Z" fill="black"/>
</svg>
