<svg width="64" height="64" viewBox="0 0 64 64" fill="none" xmlns="http://www.w3.org/2000/svg">
<path d="M6.23926 27.0059C6.23926 24.1055 6.78418 21.3896 7.87402 18.8584C8.96387 16.3096 10.4756 14.0684 12.4092 12.1348C14.3428 10.2012 16.5752 8.68945 19.1064 7.59961C21.6553 6.50977 24.3799 5.96484 27.2803 5.96484C30.1807 5.96484 32.8965 6.50977 35.4277 7.59961C37.9766 8.68945 40.2178 10.2012 42.1514 12.1348C44.085 14.0684 45.5967 16.3096 46.6865 18.8584C47.7764 21.3896 48.3213 24.1055 48.3213 27.0059C48.3213 29.4141 47.9346 31.6992 47.1611 33.8613C46.4053 36.0234 45.3506 37.9834 43.9971 39.7412L56.8906 52.7139C57.1719 52.9951 57.3828 53.3203 57.5234 53.6895C57.6816 54.0586 57.7607 54.4541 57.7607 54.876C57.7607 55.4561 57.6289 55.9834 57.3652 56.458C57.1191 56.9326 56.7676 57.3018 56.3105 57.5654C55.8535 57.8467 55.3262 57.9873 54.7285 57.9873C54.3066 57.9873 53.9023 57.9082 53.5156 57.75C53.1465 57.6094 52.8037 57.3896 52.4873 57.0908L39.5146 44.0918C37.792 45.3223 35.8936 46.2891 33.8193 46.9922C31.7451 47.6953 29.5654 48.0469 27.2803 48.0469C24.3799 48.0469 21.6553 47.502 19.1064 46.4121C16.5752 45.3223 14.3428 43.8105 12.4092 41.877C10.4756 39.9434 8.96387 37.7109 7.87402 35.1797C6.78418 32.6309 6.23926 29.9062 6.23926 27.0059ZM10.748 27.0059C10.748 29.291 11.1699 31.4355 12.0137 33.4395C12.875 35.4258 14.0615 37.1748 15.5732 38.6865C17.1025 40.1982 18.8604 41.3848 20.8467 42.2461C22.8506 43.1074 24.9951 43.5381 27.2803 43.5381C29.5654 43.5381 31.7012 43.1074 33.6875 42.2461C35.6914 41.3848 37.4492 40.1982 38.9609 38.6865C40.4727 37.1748 41.6592 35.4258 42.5205 33.4395C43.3818 31.4355 43.8125 29.291 43.8125 27.0059C43.8125 24.7207 43.3818 22.585 42.5205 20.5986C41.6592 18.5947 40.4727 16.8369 38.9609 15.3252C37.4492 13.7959 35.6914 12.6094 33.6875 11.7656C31.7012 10.9043 29.5654 10.4736 27.2803 10.4736C24.9951 10.4736 22.8506 10.9043 20.8467 11.7656C18.8604 12.6094 17.1025 13.7959 15.5732 15.3252C14.0615 16.8369 12.875 18.5947 12.0137 20.5986C11.1699 22.585 10.748 24.7207 10.748 27.0059Z" fill="black"/>
</svg>
