<svg width="64" height="64" viewBox="0 0 64 64" fill="none" xmlns="http://www.w3.org/2000/svg">
<path d="M29.3369 60.1494C28.3174 60.1494 27.4385 59.8594 26.7002 59.2793C25.9619 58.7168 25.4873 57.9434 25.2764 56.959L24.1162 52.0283L23.2725 51.7383L19.001 54.375C18.1396 54.9023 17.2432 55.1045 16.3115 54.9814C15.3799 54.876 14.5537 54.4629 13.833 53.7422L10.168 50.0771C9.42969 49.3389 8.99902 48.5127 8.87598 47.5986C8.77051 46.667 8.99023 45.7793 9.53516 44.9355L12.1982 40.6641L11.9082 39.873L6.97754 38.7129C6.01074 38.502 5.2373 38.0273 4.65723 37.2891C4.07715 36.5332 3.78711 35.6543 3.78711 34.6523V29.4316C3.78711 28.4297 4.06836 27.5596 4.63086 26.8213C5.21094 26.083 5.99316 25.5996 6.97754 25.3711L11.8555 24.1846L12.1719 23.3408L9.50879 19.0693C8.96387 18.2256 8.74414 17.3467 8.84961 16.4326C8.97266 15.501 9.40332 14.666 10.1416 13.9277L13.8066 10.2363C14.5273 9.5332 15.3447 9.12012 16.2588 8.99707C17.1904 8.87402 18.0869 9.07617 18.9482 9.60352L23.2197 12.2402L24.1162 11.8975L25.2764 6.9668C25.4873 6 25.9619 5.22656 26.7002 4.64648C27.4385 4.06641 28.3174 3.77637 29.3369 3.77637H34.6631C35.6826 3.77637 36.5527 4.06641 37.2734 4.64648C38.0117 5.22656 38.4951 6 38.7236 6.9668L39.8574 11.8975L40.7539 12.2402L45.0518 9.60352C45.8955 9.07617 46.7832 8.87402 47.7148 8.99707C48.6465 9.12012 49.4639 9.5332 50.167 10.2363L53.8584 13.9277C54.5967 14.666 55.0186 15.501 55.124 16.4326C55.2295 17.3467 55.0186 18.2256 54.4912 19.0693L51.8018 23.3408L52.1445 24.1846L57.0225 25.3711C57.9893 25.5996 58.7627 26.083 59.3428 26.8213C59.9229 27.5596 60.2129 28.4297 60.2129 29.4316V34.6523C60.2129 35.6543 59.9229 36.5332 59.3428 37.2891C58.7627 38.0273 57.9893 38.502 57.0225 38.7129L52.0918 39.873L51.7754 40.6641L54.4648 44.9355C54.9922 45.7793 55.1943 46.667 55.0713 47.5986C54.9658 48.5127 54.5527 49.3389 53.832 50.0771L50.1406 53.7422C49.4199 54.4629 48.5938 54.876 47.6621 54.9814C46.7305 55.1045 45.8428 54.9023 44.999 54.375L40.7012 51.7383L39.8574 52.0283L38.7236 56.959C38.4951 57.9434 38.0117 58.7168 37.2734 59.2793C36.5527 59.8594 35.6826 60.1494 34.6631 60.1494H29.3369ZM29.7588 56.0361H34.2412C34.6807 56.0361 34.9268 55.834 34.9795 55.4297L36.5879 48.8906C37.3965 48.6973 38.1611 48.4512 38.8818 48.1523C39.6025 47.8359 40.2441 47.502 40.8066 47.1504L46.5547 50.6836C46.9238 50.9297 47.2578 50.8857 47.5566 50.5518L50.6416 47.4404C50.9404 47.1768 50.9756 46.8516 50.7471 46.4648L47.2139 40.7695C47.5303 40.207 47.8379 39.5654 48.1367 38.8447C48.4531 38.124 48.7168 37.3594 48.9277 36.5508L55.4932 34.9951C55.8975 34.9248 56.0996 34.6699 56.0996 34.2305V29.8271C56.0996 29.4053 55.8975 29.1504 55.4932 29.0625L48.9541 27.4805C48.7432 26.6191 48.4707 25.8193 48.1367 25.0811C47.8027 24.3428 47.5127 23.7275 47.2666 23.2354L50.7734 17.54C51.0195 17.1533 50.9932 16.8105 50.6943 16.5117L47.583 13.4531C47.2666 13.1719 46.9238 13.1279 46.5547 13.3213L40.833 16.8018C40.2529 16.4854 39.6025 16.1777 38.8818 15.8789C38.1787 15.5625 37.4141 15.2988 36.5879 15.0879L34.9795 8.49609C34.9268 8.0918 34.6807 7.88965 34.2412 7.88965H29.7588C29.3193 7.88965 29.0645 8.0918 28.9941 8.49609L27.4385 15.0352C26.6475 15.2461 25.8652 15.5098 25.0918 15.8262C24.3359 16.1426 23.6768 16.459 23.1143 16.7754L17.4189 13.3213C17.0498 13.1279 16.7158 13.1719 16.417 13.4531L13.2793 16.5117C12.998 16.8105 12.9717 17.1533 13.2002 17.54L16.707 23.2354C16.4785 23.7275 16.1885 24.3428 15.8369 25.0811C15.5029 25.8193 15.2305 26.6191 15.0195 27.4805L8.50684 29.0625C8.10254 29.1504 7.90039 29.4053 7.90039 29.8271V34.2305C7.90039 34.6699 8.10254 34.9248 8.50684 34.9951L15.0459 36.5508C15.2568 37.3594 15.5205 38.124 15.8369 38.8447C16.1533 39.5654 16.4609 40.207 16.7598 40.7695L13.2266 46.4648C13.0156 46.8516 13.0508 47.1768 13.332 47.4404L16.4434 50.5518C16.7422 50.8857 17.0674 50.9297 17.4189 50.6836L23.167 47.1504C23.7295 47.502 24.3711 47.8359 25.0918 48.1523C25.8301 48.4512 26.6035 48.6973 27.4121 48.8906L28.9941 55.4297C29.0645 55.834 29.3193 56.0361 29.7588 56.0361ZM32 42.0088C30.1367 42.0088 28.4404 41.5605 26.9111 40.6641C25.3994 39.75 24.1953 38.5371 23.2988 37.0254C22.4023 35.4961 21.9541 33.8086 21.9541 31.9629C21.9541 30.0996 22.4023 28.4121 23.2988 26.9004C24.1953 25.3887 25.3994 24.1846 26.9111 23.2881C28.4404 22.374 30.1367 21.917 32 21.917C33.8457 21.917 35.5244 22.374 37.0361 23.2881C38.5654 24.1846 39.7783 25.3887 40.6748 26.9004C41.5889 28.4121 42.0459 30.0996 42.0459 31.9629C42.0459 33.8086 41.5889 35.4961 40.6748 37.0254C39.7783 38.5371 38.5654 39.75 37.0361 40.6641C35.5244 41.5605 33.8457 42.0088 32 42.0088ZM32 37.9219C33.0898 37.9219 34.083 37.6582 34.9795 37.1309C35.8936 36.5859 36.6143 35.8652 37.1416 34.9688C37.6865 34.0547 37.959 33.0527 37.959 31.9629C37.959 30.8555 37.6865 29.8535 37.1416 28.957C36.6143 28.0605 35.8936 27.3486 34.9795 26.8213C34.083 26.2764 33.0898 26.0039 32 26.0039C30.8926 26.0039 29.8906 26.2764 28.9941 26.8213C28.0977 27.3486 27.377 28.0605 26.832 28.957C26.3047 29.8535 26.041 30.8555 26.041 31.9629C26.041 33.0527 26.3047 34.0547 26.832 34.9688C27.377 35.8652 28.0977 36.5859 28.9941 37.1309C29.8906 37.6582 30.8926 37.9219 32 37.9219Z" fill="black"/>
</svg>
