<svg width="64" height="64" viewBox="0 0 64 64" fill="none" xmlns="http://www.w3.org/2000/svg">
<path d="M36.0342 61.125C34.8037 61.125 33.916 60.6855 33.3711 59.8066C32.8262 58.9277 32.3604 57.8291 31.9736 56.5107L26.4365 37.7109L7.39941 32.1211C6.13379 31.7344 5.08789 31.2773 4.26172 30.75C3.43555 30.2051 3.02246 29.3262 3.02246 28.1133C3.02246 27.1641 3.40039 26.3467 4.15625 25.6611C4.91211 24.9756 5.84375 24.4219 6.95117 24L52.3027 6.62402C52.918 6.39551 53.4893 6.21973 54.0166 6.09668C54.5615 5.95605 55.0537 5.88574 55.4932 5.88574C56.3545 5.88574 57.0313 6.13184 57.5234 6.62402C58.0156 7.11621 58.2617 7.79297 58.2617 8.6543C58.2617 9.11133 58.1914 9.60352 58.0508 10.1309C57.9277 10.6582 57.752 11.2295 57.5234 11.8447L40.2529 56.959C39.7607 58.2246 39.1719 59.2354 38.4863 59.9912C37.8008 60.7471 36.9834 61.125 36.0342 61.125ZM27.623 33.7031L45.7637 15.5625C46.4844 14.8418 47.3369 14.0771 48.3213 13.2686C49.3057 12.46 50.2373 11.7041 51.1162 11.001C50.1318 11.458 49.1299 11.9326 48.1104 12.4248C47.1084 12.8994 46.0801 13.3389 45.0254 13.7432L9.37695 27.2432C9.18359 27.3135 9.05176 27.3926 8.98145 27.4805C8.91113 27.5508 8.87598 27.6299 8.87598 27.7178C8.87598 27.8057 8.91113 27.8848 8.98145 27.9551C9.06934 28.0254 9.21875 28.0869 9.42969 28.1396L27.623 33.7031ZM36.4561 55.3242C36.5439 55.3242 36.623 55.2803 36.6934 55.1924C36.7637 55.1045 36.834 54.9639 36.9043 54.7705L50.4043 19.1221C50.8086 18.0498 51.2568 17.0039 51.749 15.9844C52.2412 14.9648 52.7158 13.9541 53.1729 12.9521C52.4697 13.8486 51.7051 14.7979 50.8789 15.7998C50.0703 16.8018 49.3057 17.6631 48.585 18.3838L30.4443 36.5244L36.0078 54.7178C36.0781 54.9287 36.1396 55.0781 36.1924 55.166C36.2627 55.2715 36.3506 55.3242 36.4561 55.3242Z" fill="black"/>
</svg>
