<svg width="64" height="64" viewBox="0 0 64 64" fill="none" xmlns="http://www.w3.org/2000/svg">
<path d="M4.23535 62.4961C3.72559 62.4961 3.27734 62.3203 2.89062 61.9688C2.50391 61.6172 2.31055 61.1865 2.31055 60.6768V3.19629C2.31055 2.68652 2.50391 2.25586 2.89062 1.9043C3.27734 1.55273 3.72559 1.37695 4.23535 1.37695C4.7627 1.37695 5.21973 1.55273 5.60645 1.9043C5.99316 2.25586 6.18652 2.68652 6.18652 3.19629V60.6768C6.18652 61.1865 5.99316 61.6172 5.60645 61.9688C5.21973 62.3203 4.7627 62.4961 4.23535 62.4961ZM17.0762 29.4053C15.125 29.4053 13.6309 28.8955 12.5938 27.876C11.5566 26.8564 11.0381 25.3887 11.0381 23.4727V14.2969C11.0381 12.3809 11.5566 10.9131 12.5938 9.89355C13.6309 8.87402 15.125 8.36426 17.0762 8.36426H36.9834C38.9346 8.36426 40.4287 8.87402 41.4658 9.89355C42.5029 10.9131 43.0215 12.3809 43.0215 14.2969V23.4727C43.0215 25.3887 42.5029 26.8564 41.4658 27.876C40.4287 28.8955 38.9346 29.4053 36.9834 29.4053H17.0762ZM17.1553 25.4238H36.9043C37.5898 25.4238 38.1172 25.2393 38.4863 24.8701C38.8555 24.4834 39.04 23.9385 39.04 23.2354V14.5078C39.04 13.8047 38.8555 13.2686 38.4863 12.8994C38.1172 12.5303 37.5898 12.3457 36.9043 12.3457H17.1553C16.4697 12.3457 15.9424 12.5303 15.5732 12.8994C15.2041 13.2686 15.0195 13.8047 15.0195 14.5078V23.2354C15.0195 23.9385 15.2041 24.4834 15.5732 24.8701C15.9424 25.2393 16.4697 25.4238 17.1553 25.4238ZM17.0762 55.5352C15.125 55.5352 13.6309 55.0254 12.5938 54.0059C11.5566 53.0039 11.0381 51.5361 11.0381 49.6025V40.4268C11.0381 38.5107 11.5566 37.043 12.5938 36.0234C13.6309 35.0039 15.125 34.4941 17.0762 34.4941H55.6514C57.6201 34.4941 59.1143 35.0039 60.1338 36.0234C61.1709 37.043 61.6895 38.5107 61.6895 40.4268V49.6025C61.6895 51.5361 61.1709 53.0039 60.1338 54.0059C59.1143 55.0254 57.6201 55.5352 55.6514 55.5352H17.0762ZM17.1553 51.5537H55.5723C56.2578 51.5537 56.7852 51.3691 57.1543 51C57.5234 50.6309 57.708 50.0947 57.708 49.3916V40.6641C57.708 39.9609 57.5234 39.4248 57.1543 39.0557C56.7852 38.6689 56.2578 38.4756 55.5723 38.4756H17.1553C16.4697 38.4756 15.9424 38.6689 15.5732 39.0557C15.2041 39.4248 15.0195 39.9609 15.0195 40.6641V49.3916C15.0195 50.0947 15.2041 50.6309 15.5732 51C15.9424 51.3691 16.4697 51.5537 17.1553 51.5537Z" fill="black"/>
</svg>
