<svg width="64" height="64" viewBox="0 0 64 64" fill="none" xmlns="http://www.w3.org/2000/svg">
<path d="M56.917 42.4043C56.917 45.7793 56.1963 48.7236 54.7549 51.2373C53.3311 53.7686 51.248 55.7285 48.5059 57.1172C45.7637 58.5234 42.4238 59.2266 38.4863 59.2266H32.3955C31.6748 59.2266 31.0947 58.998 30.6553 58.541C30.2158 58.084 29.9961 57.5303 29.9961 56.8799C29.9961 56.2295 30.2158 55.6758 30.6553 55.2188C31.0947 54.7617 31.6748 54.5332 32.3955 54.5332H38.46C41.4658 54.5332 43.9883 53.9883 46.0273 52.8984C48.0664 51.8262 49.6045 50.3584 50.6416 48.4951C51.6787 46.6318 52.1973 44.5137 52.1973 42.1406C52.1973 39.7852 51.6787 37.7021 50.6416 35.8916C49.6045 34.0635 48.0664 32.6396 46.0273 31.6201C43.9883 30.6006 41.4658 30.0908 38.46 30.0908H20.3457L12.1719 29.7217L12.6465 28.5088L19.1592 34.0986L26.7793 41.5078C26.9727 41.7188 27.1221 41.9561 27.2275 42.2197C27.3506 42.4834 27.4121 42.7822 27.4121 43.1162C27.4121 43.8018 27.1924 44.3643 26.7529 44.8037C26.3311 45.2256 25.7686 45.4365 25.0654 45.4365C24.415 45.4365 23.8525 45.1904 23.3779 44.6982L7.87402 29.4844C7.61035 29.2383 7.4082 28.9658 7.26758 28.667C7.14453 28.3682 7.08301 28.0605 7.08301 27.7441C7.08301 27.4102 7.14453 27.0938 7.26758 26.7949C7.4082 26.4961 7.61035 26.2236 7.87402 25.9775L23.3779 10.7637C23.8525 10.2715 24.415 10.0254 25.0654 10.0254C25.7686 10.0254 26.3311 10.2451 26.7529 10.6846C27.1924 11.1064 27.4121 11.6602 27.4121 12.3457C27.4121 12.6797 27.3506 12.9785 27.2275 13.2422C27.1221 13.5059 26.9727 13.7432 26.7793 13.9541L19.1592 21.3896L12.6465 26.9531L12.1719 25.7402L20.3457 25.3711H38.0645C42.0723 25.3711 45.4824 26.0918 48.2949 27.5332C51.1074 28.9746 53.2432 30.9785 54.7021 33.5449C56.1787 36.0938 56.917 39.0469 56.917 42.4043Z" fill="black"/>
</svg>
