<svg width="64" height="64" viewBox="0 0 64 64" fill="none" xmlns="http://www.w3.org/2000/svg">
<path d="M32 58.8574C28.291 58.8574 24.8105 58.1543 21.5586 56.748C18.3066 55.3594 15.4502 53.4346 12.9893 50.9736C10.5283 48.5127 8.59473 45.6562 7.18848 42.4043C5.7998 39.1523 5.10547 35.6719 5.10547 31.9629C5.10547 28.2539 5.7998 24.7734 7.18848 21.5215C8.59473 18.2695 10.5283 15.4131 12.9893 12.9521C15.4502 10.4736 18.3066 8.54004 21.5586 7.15137C24.8105 5.7627 28.291 5.06836 32 5.06836C35.709 5.06836 39.1895 5.7627 42.4414 7.15137C45.6934 8.54004 48.5498 10.4736 51.0107 12.9521C53.4717 15.4131 55.3965 18.2695 56.7852 21.5215C58.1914 24.7734 58.8945 28.2539 58.8945 31.9629C58.8945 35.6719 58.1914 39.1523 56.7852 42.4043C55.3965 45.6562 53.4717 48.5127 51.0107 50.9736C48.5498 53.4346 45.6934 55.3594 42.4414 56.748C39.1895 58.1543 35.709 58.8574 32 58.8574ZM32 54.375C35.0938 54.375 37.9941 53.7949 40.7012 52.6348C43.4082 51.4746 45.79 49.8662 47.8467 47.8096C49.9033 45.7529 51.5117 43.3711 52.6719 40.6641C53.832 37.957 54.4121 35.0566 54.4121 31.9629C54.4121 28.8691 53.832 25.9688 52.6719 23.2617C51.5117 20.5371 49.9033 18.1553 47.8467 16.1162C45.79 14.0596 43.4082 12.4512 40.7012 11.291C37.9941 10.1309 35.0938 9.55078 32 9.55078C28.9062 9.55078 26.0059 10.1309 23.2988 11.291C20.5918 12.4512 18.21 14.0596 16.1533 16.1162C14.0967 18.1553 12.4883 20.5371 11.3281 23.2617C10.168 25.9688 9.58789 28.8691 9.58789 31.9629C9.58789 35.0566 10.168 37.957 11.3281 40.6641C12.4883 43.3711 14.0967 45.7529 16.1533 47.8096C18.21 49.8662 20.5918 51.4746 23.2988 52.6348C26.0059 53.7949 28.9062 54.375 32 54.375ZM32 18.6738C32.2812 18.6738 32.5361 18.7266 32.7646 18.832C33.0107 18.9199 33.2656 19.0957 33.5293 19.3594L42.2305 27.7441C42.4238 27.9375 42.5732 28.1484 42.6787 28.377C42.7842 28.6055 42.8369 28.8604 42.8369 29.1416C42.8369 29.6689 42.6523 30.1084 42.2832 30.46C41.9141 30.8115 41.457 30.9873 40.9121 30.9873C40.332 30.9873 39.8574 30.7764 39.4883 30.3545L35.4805 26.0566L33.9512 24.4482L34.1094 28.377V43.2217C34.1094 43.7666 33.8984 44.2412 33.4766 44.6455C33.0723 45.0498 32.5801 45.252 32 45.252C31.4375 45.252 30.9453 45.0498 30.5234 44.6455C30.1191 44.2412 29.917 43.7666 29.917 43.2217V28.377L30.0752 24.4482L28.5195 26.0566L24.5117 30.3545C24.1426 30.7764 23.6592 30.9873 23.0615 30.9873C22.5166 30.9873 22.0596 30.8115 21.6904 30.46C21.3389 30.1084 21.1631 29.6689 21.1631 29.1416C21.1631 28.8604 21.2158 28.6055 21.3213 28.377C21.4268 28.1484 21.585 27.9375 21.7959 27.7441L30.4707 19.3594C30.752 19.0957 31.0068 18.9199 31.2354 18.832C31.4814 18.7266 31.7363 18.6738 32 18.6738Z" fill="black"/>
</svg>
